<?xml version="1.0" encoding="UTF-8"?>
<svg id="Layer_1" xmlns="http://www.w3.org/2000/svg" viewBox="0 0 26.42 24">
  <defs>
    <style>
      .cls-1 {
        fill: #c6c6c5;
      }

      .cls-1, .cls-2, .cls-3, .cls-4, .cls-5 {
        fill-rule: evenodd;
      }

      .cls-6, .cls-2 {
        fill: #fff;
      }

      .cls-7, .cls-8 {
        fill: none;
      }

      .cls-9, .cls-4 {
        fill: #2c2a29;
      }

      .cls-8 {
        stroke: #fdec09;
        stroke-miterlimit: 10;
        stroke-width: .01px;
      }

      .cls-3, .cls-10 {
        fill: #fecd06;
      }

      .cls-5, .cls-11 {
        fill: #25458c;
      }
    </style>
  </defs>
  <rect class="cls-7" width="24" height="24"/>
  <g id="_2663636192480">
    <g>
      <path class="cls-4" d="M13.62,1.34c.1.02.2.04.3.07l1.14-1.1-.4,1.48s.08.07.12.1l1.8-.67-1.3,1.33s0,0,0,.01l2.16-.04-1.92.82,2.21.59-.65.08c.33.21.56.53.63.94.11.64-.15,1.01-.51,1.52-.15.21-.32.41-.45.63-.12.2-.19.4-.2.64-.02.35.1.73.22,1.06.15.41.29.87.21,1.3-.09.44-.38.77-.72,1.04-.47.43-1,.8-1.54,1.13-.25.15-.51.3-.78.44-.21.11-.43.21-.66.29l-.09.03-.09-.03c-.23-.08-.44-.18-.66-.29-.27-.13-.52-.28-.78-.44-.54-.33-1.07-.7-1.54-1.13-.33-.28-.63-.61-.72-1.04-.09-.44.05-.9.21-1.3.12-.33.23-.71.22-1.06-.01-.24-.08-.43-.2-.64-.13-.22-.3-.42-.45-.63-.36-.51-.61-.88-.51-1.52.07-.41.3-.73.63-.94l-.65-.08,2.22-.59-1.92-.82,2.16.04s0,0,0-.01l-1.3-1.33,1.8.67s.08-.07.12-.1l-.4-1.48,1.14,1.1c.1-.03.2-.05.3-.07L13.21,0l.41,1.34h0Z"/>
      <path class="cls-4" d="M13.21.43l-.31,1.02c-.15.02-.29.05-.43.1l-.86-.83.3,1.12c-.08.06-.16.13-.24.2l-1.35-.5.97,1c-.03.05-.05.11-.08.17l-1.6-.03,1.47.63s0,.05,0,.07,0,.05,0,.07l-1.8.46.56.04c-.54.13-.94.51-1.03,1.05-.09.57.1.88.48,1.43.15.21.32.42.46.64.13.22.21.44.22.7.02.37-.1.77-.23,1.11-.14.38-.28.83-.2,1.23.08.41.36.71.68.97.46.42.99.79,1.53,1.12.25.15.51.3.77.43.21.11.42.21.64.29l.04.02.04-.02c.22-.08.44-.18.64-.29.26-.13.52-.28.77-.43.53-.32,1.07-.7,1.53-1.12.31-.26.6-.57.68-.97.08-.41-.06-.85-.2-1.23-.13-.34-.24-.74-.23-1.11.01-.26.08-.47.22-.7.13-.22.31-.43.46-.64.39-.55.58-.86.48-1.43-.09-.53-.49-.91-1.03-1.05l.56-.04-1.8-.46s0-.05,0-.07,0-.05,0-.07l1.47-.63-1.6.03c-.02-.06-.05-.11-.08-.17l.97-1-1.35.5c-.07-.07-.15-.14-.24-.2l.3-1.12-.86.83c-.14-.05-.28-.08-.43-.1l-.31-1.02h0Z"/>
      <path class="cls-3" d="M13.21.43l-.31,1.02c-.15.02-.29.05-.43.1l-.86-.83.3,1.12c-.08.06-.16.13-.24.2l-1.35-.5.97,1c-.03.05-.05.11-.08.17l-1.6-.03,1.47.63s0,.05,0,.07,0,.05,0,.07l-1.8.46,1.93.15c.02.06.05.11.08.17l-.97,1,1.35-.5c.07.07.15.14.24.2l-.3,1.12.86-.83c.14.05.28.08.43.1l.31,1.02.31-1.02c.15-.02.29-.05.43-.1l.86.83-.3-1.12c.08-.06.16-.13.24-.2l1.35.5-.97-1c.03-.05.05-.11.08-.17l1.93-.15-1.8-.46s0-.05,0-.07,0-.05,0-.07l1.47-.63-1.6.03c-.02-.06-.05-.11-.08-.17l.97-1-1.35.5c-.07-.07-.15-.14-.24-.2l.3-1.12-.86.83c-.14-.05-.28-.08-.43-.1l-.31-1.02h0Z"/>
      <path class="cls-1" d="M13.21,4.47c.46-.05,1.03-.24,2.31-.49,1.02-.29,1.94.17,2.08,1.01.09.57-.1.88-.48,1.43-.15.21-.32.42-.46.64-.13.22-.21.44-.22.7-.02.37.1.77.23,1.11.14.38.28.83.2,1.23-.08.41-.36.71-.68.97-.46.42-.99.79-1.53,1.12-.25.15-.51.3-.77.43-.21.11-.42.21-.64.29l-.04.02-.04-.02c-.22-.08-.44-.18-.64-.29-.26-.13-.52-.28-.77-.43-.53-.32-1.07-.7-1.53-1.12-.31-.26-.6-.57-.68-.97-.08-.41.06-.85.2-1.23.13-.34.24-.74.23-1.11-.01-.26-.08-.47-.22-.7-.13-.22-.31-.43-.46-.64-.39-.55-.58-.86-.48-1.43.14-.84,1.06-1.31,2.08-1.01,1.27.25,1.85.44,2.31.49h0Z"/>
      <path class="cls-5" d="M13.21,12.66c.2-.08.4-.17.59-.27.25-.13.5-.27.75-.42.26-.16.52-.33.77-.52.24-.18.48-.37.7-.57h0s0,0,0,0c.27-.23.54-.51.61-.87.03-.16.02-.33,0-.5-.04-.21-.11-.43-.18-.63-.14-.36-.25-.78-.23-1.17.01-.28.09-.53.24-.77.13-.23.31-.43.46-.65.16-.23.33-.53.43-.8l-.09.02c-.17.04-.37.04-.53-.04-.13-.06-.22-.16-.31-.26-.07-.08-.15-.18-.25-.23-.11-.06-.22-.07-.34-.04-.3.07-.6.14-.9.22-.23.05-.45.11-.68.15-.34.07-.67.12-1.02.12h-.02s-.02,0-.02,0c-.34,0-.68-.06-1.02-.12-.23-.05-.46-.1-.68-.15-.3-.07-.6-.14-.9-.22-.12-.03-.23-.03-.34.04-.1.06-.18.15-.25.23-.09.1-.18.2-.31.26-.16.08-.35.07-.53.04l-.09-.02c.1.26.27.56.43.8.15.22.32.42.46.65.15.25.23.49.24.77.02.39-.1.8-.23,1.17-.08.2-.15.42-.18.63-.03.16-.04.33,0,.5.07.36.33.63.61.87h0s0,0,0,0c.22.2.46.39.7.57.25.18.51.36.77.52.24.15.49.29.75.42.19.1.39.19.59.27Z"/>
      <path class="cls-2" d="M9.51,4.8c-.12,0-.22.1-.22.21s.1.21.22.21.22-.1.22-.21-.1-.21-.22-.21ZM16.91,4.8c-.12,0-.22.1-.22.21s.1.21.22.21.22-.1.22-.21-.1-.21-.22-.21Z"/>
      <g>
        <path class="cls-3" d="M13.21,11.07v.42h-1.59c-.16,0-.28-.13-.28-.29v-1.31c0-.12.09-.21.2-.21s.2.09.2.21v1.18h1.47Z"/>
        <path class="cls-2" d="M13.21,11.07v.42h1.59c.16,0,.28-.13.28-.29v-1.31c0-.12-.09-.21-.2-.21s-.2.09-.2.21v1.18h-1.47Z"/>
      </g>
      <g>
        <path class="cls-5" d="M13.21,4.59c.91,0,1.66-.64,1.66-1.44s-.74-1.44-1.66-1.44-1.66.64-1.66,1.44.74,1.44,1.66,1.44h0Z"/>
        <path class="cls-2" d="M11.7,3.06c.02-.2.09-.39.2-.56.19.07.38.13.56.17-.03.13-.05.26-.05.39h-.71ZM13.84,3.12s0,.04,0,.06h-1.25s0-.04,0-.06h1.25ZM13.9,3.12h.06s0,.04,0,.06h-.06s0-.04,0-.06ZM14.02,3.12h.71s0,.04,0,.06h-.71s0-.04,0-.06h0ZM14.79,3.15c0-.38-.18-.72-.46-.97-.29-.25-.68-.4-1.11-.4s-.83.15-1.11.4c-.29.25-.46.59-.46.97s.18.72.46.97c.29.25.68.4,1.11.4s.83-.15,1.11-.4c.29-.25.46-.59.46-.97ZM13.21,1.85c.08,0,.15,0,.23.01.03.05.06.1.09.16-.21.04-.42.04-.63,0,.03-.05.06-.1.09-.16.07,0,.15-.01.23-.01h0ZM13.56,2.07s.02.03.03.05c-.25.05-.5.05-.75,0,0-.02.02-.03.03-.05.23.04.46.04.7,0h0ZM13.61,2.18c.05.11.1.23.13.34-.35.06-.71.06-1.06,0,.03-.11.08-.23.13-.34.27.05.54.05.8,0h0ZM13.76,2.58s0,.04.01.06c-.38.06-.75.06-1.13,0,0-.02,0-.04.01-.06.37.06.73.06,1.1,0ZM13.79,2.7c.03.12.04.24.05.36h-1.25c0-.12.02-.24.05-.36.38.06.77.06,1.15,0h0ZM13.85,2.5s-.03,0-.05,0c-.03-.11-.08-.23-.13-.34.01,0,.03,0,.04-.01.05.11.1.23.13.34h0ZM13.83,2.63s0-.04-.01-.06c.02,0,.03,0,.05,0,0,.02.01.04.02.06-.02,0-.03,0-.05,0ZM13.9,3.06c0-.12-.02-.25-.05-.37.02,0,.03,0,.05,0,.03.13.05.25.05.38h-.06ZM14.01,3.06c0-.13-.02-.26-.05-.39.19-.04.38-.1.56-.17.11.17.18.36.2.56h-.71ZM13.95,2.61s0-.04-.02-.06c.17-.04.34-.09.51-.16.01.02.03.04.04.05-.18.07-.36.12-.54.16h0ZM13.59,2s-.05-.09-.07-.13c.02,0,.03,0,.05,0,.02.04.04.07.07.11-.01,0-.03,0-.04,0ZM13.69,2.1s-.03,0-.04.01c0-.02-.02-.03-.03-.05.01,0,.03,0,.04-.01,0,.02.02.03.03.05h0ZM13.91,2.49c-.04-.12-.08-.23-.13-.35.08-.02.17-.05.25-.09.09.05.17.11.25.17.04.04.08.07.12.11-.16.06-.33.11-.49.15h0ZM13.75,2.09s-.02-.03-.03-.05c.05-.02.11-.03.16-.05.03.01.05.02.07.03-.07.03-.14.05-.21.07ZM13.7,1.98s-.03-.05-.04-.08c.05.01.1.03.15.05-.03.01-.07.02-.1.03ZM13.83,3.24c0,.12-.02.24-.05.36-.38-.06-.77-.06-1.15,0-.03-.12-.04-.24-.05-.36h1.25,0ZM13.77,3.66s0,.04-.01.06c-.37-.06-.73-.06-1.1,0,0-.02,0-.04-.01-.06.38-.06.75-.06,1.13,0ZM13.74,3.78c-.03.11-.08.23-.13.34-.27-.05-.54-.05-.8,0-.05-.11-.1-.23-.13-.34.35-.06.71-.06,1.06,0h0ZM13.58,4.17s-.02.03-.03.05c-.23-.04-.46-.04-.7,0,0-.02-.02-.03-.03-.05.25-.05.5-.05.75,0h0ZM13.53,4.28c-.03.05-.06.1-.09.16-.07,0-.15.01-.23.01s-.15,0-.23-.01c-.03-.05-.06-.1-.09-.16.21-.04.42-.04.63,0h0ZM13.8,3.79s.03,0,.05,0c-.04.11-.08.23-.13.34-.01,0-.03,0-.04-.01.05-.11.1-.23.13-.34h0ZM13.82,3.73s0-.04.01-.06c.02,0,.03,0,.05,0,0,.02,0,.04-.02.06-.02,0-.03,0-.05,0ZM13.85,3.61c.03-.12.04-.25.05-.37h.06c0,.13-.02.25-.05.38-.02,0-.03,0-.05,0ZM13.96,3.63c.03-.13.05-.26.05-.39h.71c-.02.2-.09.39-.2.56-.19-.07-.38-.13-.56-.17h0ZM13.93,3.75s.01-.04.02-.06c.18.04.36.09.54.16-.01.02-.03.04-.04.05-.17-.07-.34-.12-.51-.16ZM13.52,4.43s.05-.09.07-.13c.01,0,.03,0,.04,0-.02.04-.04.07-.07.11-.02,0-.03,0-.05,0ZM13.65,4.19s.03,0,.04.01c0,.02-.02.03-.03.05-.01,0-.03,0-.04-.01,0-.02.02-.03.03-.05h0ZM13.78,4.16c.05-.12.1-.23.13-.35.16.04.33.08.49.15-.04.04-.08.08-.12.11-.08.07-.16.12-.25.17-.08-.03-.17-.06-.25-.09h0ZM13.73,4.27s.02-.03.03-.05c.07.02.14.04.21.07-.02.01-.05.02-.07.03-.05-.02-.11-.04-.16-.05ZM13.65,4.4s.03-.05.04-.08c.03,0,.07.02.1.03-.05.02-.1.03-.15.05ZM12.52,3.18h-.06s0-.04,0-.06h.06s0,.04,0,.06ZM12.41,3.18h-.71s0-.04,0-.06h.71s0,.04,0,.06ZM11.7,3.24h.71c0,.13.02.26.05.39-.19.04-.38.1-.56.17-.11-.17-.18-.36-.2-.56ZM11.93,3.85c.18-.07.36-.12.54-.16,0,.02,0,.04.02.06-.17.04-.34.09-.51.16-.01-.02-.03-.04-.04-.05ZM12.57,3.8s.03,0,.05,0c.03.11.08.23.13.34-.01,0-.03,0-.04.01-.05-.11-.1-.23-.13-.34h0ZM12.55,3.74s-.01-.04-.02-.06c.02,0,.03,0,.05,0,0,.02,0,.04.01.06-.02,0-.03,0-.05,0h0ZM12.52,3.62c-.03-.13-.05-.25-.05-.38h.06c0,.12.02.25.05.37-.02,0-.03,0-.05,0h0ZM12.02,3.96c.16-.06.33-.11.49-.15.04.12.08.23.13.35-.08.02-.17.05-.25.09-.09-.05-.17-.11-.25-.17-.04-.04-.08-.07-.12-.11h0ZM12.46,4.28c.07-.03.14-.05.21-.07,0,.02.02.03.03.05-.05.02-.11.03-.16.05-.03-.01-.05-.02-.07-.03ZM12.85,4.42s-.04-.07-.07-.11c.01,0,.03,0,.04,0,.02.04.05.09.07.13-.02,0-.03,0-.05,0h0ZM12.76,4.25s-.02-.03-.03-.05c.01,0,.03,0,.04-.01,0,.02.02.03.03.05-.01,0-.03,0-.04.01ZM12.62,4.35s.07-.02.1-.03c.01.03.03.05.04.08-.05-.01-.1-.03-.15-.05ZM12.47,3.06c0-.13.02-.25.05-.38.02,0,.03,0,.05,0-.03.12-.04.25-.05.37h-.06ZM12.47,2.61c-.18-.04-.36-.09-.54-.16.01-.02.03-.04.04-.05.17.07.34.12.51.16,0,.02-.01.04-.02.06ZM12.62,2.51s-.03,0-.05,0c.04-.11.08-.23.13-.34.01,0,.03,0,.04.01-.05.11-.1.23-.13.34h0ZM12.53,2.62s0-.04.02-.06c.02,0,.03,0,.05,0,0,.02,0,.04-.01.06-.02,0-.03,0-.05,0h0ZM12.51,2.49c-.16-.04-.33-.08-.49-.15.04-.04.08-.08.12-.11.08-.07.16-.12.25-.17.08.03.17.06.25.09-.05.12-.1.23-.13.35h0ZM12.67,2.09c-.07-.02-.14-.04-.21-.07.02-.01.05-.02.07-.03.05.02.11.04.16.05,0,.02-.02.03-.03.05ZM12.79,2s.04-.07.07-.11c.02,0,.03,0,.05,0-.03.04-.05.09-.07.13-.01,0-.03,0-.04,0h0ZM12.73,2.1s.02-.03.03-.05c.01,0,.03,0,.04.01,0,.02-.02.03-.03.05-.01,0-.03,0-.04-.01ZM12.73,1.98s-.07-.02-.1-.03c.05-.02.1-.03.15-.05-.01.03-.03.05-.04.08Z"/>
      </g>
      <path class="cls-3" d="M13.21,8.7c-.15.2-.35.48-.36.74-.05.63.78.63.73,0-.02-.25-.21-.54-.36-.74ZM13.04,9.55c0-.13.1-.28.17-.38.07.1.17.25.17.38.02.32-.37.32-.35,0Z"/>
      <path class="cls-3" d="M13.44,10.42c.03.13.15.22.3.28v.06c-.35.15-.7.15-1.05,0v-.06c.15-.06.26-.15.3-.28-.06-.02-.11-.05-.16-.09-.09-.07-.18-.21-.19-.32-.01-.03,0-.06,0-.06.01-.04.08-.08.08-.08.06-.03.12-.05.19-.06h0s.02.03.04.04c-.07.01-.15.03-.21.06-.05.03-.09.07-.03.12.06.04.16.07.24.07.1,0,.22-.05.26-.15h0s0,0,0,0c.04.1.16.15.26.15.07,0,.18-.03.24-.07.06-.05.02-.09-.03-.12-.06-.03-.13-.05-.21-.06.01-.01.02-.02.04-.04h0c.07,0,.13.03.19.06,0,0,.07.04.08.08,0,0,.01.03,0,.06,0,.11-.1.25-.19.32-.05.04-.1.07-.16.09Z"/>
      <polygon class="cls-8" points="9.32 9.83 9.19 9.99 9.21 10.22 9.32 10.28 9.32 9.83"/>
      <g>
        <path class="cls-4" d="M13.21,12.93c.24,0,.48-.03.78-.07,1.5-.27,2.7-1.28,3.11-2.59v-.11h0s-.09-2.27-.09-2.27h.71l.08.24.07-.25h.66v1.29h.27s0,.12,0,.12c0,2.79-2.51,5.06-5.6,5.06h0c-3.09,0-5.6-2.27-5.6-5.06v-.12h.27s0-1.29,0-1.29h.66l.07.25.08-.24h.71l-.09,2.27h0s0,.11,0,.11c.41,1.31,1.61,2.32,3.11,2.59.31.04.54.07.78.07h0Z"/>
        <path class="cls-2" d="M13.21,13.05c2.3,0,4.17-1.67,4.2-3.76h1.28c0,2.73-2.45,4.94-5.48,4.94-3.02,0-5.47-2.21-5.48-4.94h1.28c.03,2.08,1.89,3.76,4.2,3.76h0ZM9.14,9.17c0,.27.01.5.07.77l.07-1.91h-.49l-.19.52-.15-.54h-.44v1.16h1.13ZM17.29,9.17c0,.27-.01.5-.07.77l-.07-1.91h.49l.19.52.15-.54h.44v1.16h-1.13Z"/>
        <path class="cls-9" d="M8.37,9.63s.06,0,.09,0c.03,0,.05,0,.08.01.02,0,.03.01.05.02.02,0,.03.02.05.03.01.01.03.02.04.03.01.01.02.03.03.04.01.02.02.04.03.06,0,.02.01.05.02.07,0,.05,0,.09,0,.13,0,.04-.03.08-.05.11-.03.03-.06.06-.1.08-.04.02-.08.03-.13.04-.05,0-.1,0-.14,0-.04,0-.08-.02-.11-.05-.03-.02-.06-.05-.08-.09-.02-.04-.03-.08-.04-.12,0-.05,0-.09,0-.13,0-.04.03-.08.05-.11.02-.03.06-.06.09-.08.04-.02.08-.03.13-.04h0ZM8.4,9.77s-.06.01-.09.03c-.02.01-.04.03-.06.04-.01.02-.03.04-.03.06,0,.02,0,.04,0,.07,0,.02.01.05.02.06.01.02.03.03.05.05.02.01.04.02.07.02.03,0,.06,0,.09,0,.03,0,.06-.01.09-.02.02-.01.04-.03.06-.04.01-.02.02-.04.03-.06,0-.02,0-.04,0-.07,0-.02-.01-.05-.02-.07-.01-.02-.03-.03-.05-.05-.02-.01-.04-.02-.07-.02-.03,0-.06,0-.09,0h0ZM8.19,10.37l.12-.03.03.13-.13.03-.03-.13h0s0,0,0,0ZM8.26,10.6l.6-.22.07.2s.02.07.03.09c0,.02.01.04.01.06,0,.02,0,.04,0,.06,0,.02-.01.04-.02.05-.01.02-.03.03-.04.05-.02.01-.04.02-.06.03-.02,0-.04.01-.05.01-.02,0-.03,0-.05,0-.02,0-.03,0-.04-.01-.01,0-.03-.01-.04-.02-.01,0-.02-.02-.03-.02,0,0-.02-.02-.02-.03h0s-.02-.03-.03-.05c0-.02-.02-.04-.03-.07l-.03-.07-.22.08-.05-.13h0s0,0,0,0ZM8.79,10.56l-.15.06.02.06s.02.04.02.06c0,.01.01.02.02.03,0,0,.01.01.02.02,0,0,.01,0,.02,0,0,0,.01,0,.02,0,0,0,.02,0,.02,0,0,0,.02,0,.03-.01,0,0,.01-.01.02-.02,0,0,0-.02,0-.03,0,0,0-.02,0-.03,0,0,0-.02,0-.03,0-.01-.01-.03-.02-.05l-.02-.05h0ZM8.43,11.04l.11-.06.06.12-.12.06-.06-.12h0s0,0,0,0ZM9.32,11.33l.07.11-.34.22s-.04.03-.06.03c-.02,0-.04.02-.05.02-.02,0-.04,0-.06,0-.02,0-.04,0-.06-.01-.02,0-.04-.02-.05-.04-.02-.02-.03-.03-.05-.06-.02-.03-.03-.05-.03-.08,0-.03,0-.05,0-.08,0-.02.02-.05.04-.07.02-.02.04-.04.07-.06h0s.09.1.09.1h0s-.03.02-.03.03c0,0-.01.02-.02.02,0,.01,0,.02,0,.03,0,.01,0,.02.01.03,0,.01.01.02.02.02,0,0,.02,0,.02,0,0,0,.02,0,.03,0,.02,0,.03-.02.05-.03l.35-.22h0ZM8.93,11.87l.5-.39.09.11-.51.4-.09-.11h0ZM9.07,12.07l.46-.44.09.1-.12.45.29-.28.09.1c-.16.15-.31.3-.47.44-.03-.03-.06-.07-.1-.1l.12-.45-.28.27-.09-.1h0s0,0,0,0ZM9.94,12.05l.17.15s.04.03.05.05c.01.01.03.03.03.04.01.02.02.03.02.05,0,.02,0,.04.01.06,0,.02,0,.04,0,.06,0,.02,0,.04-.02.06,0,.02-.02.04-.03.06-.01.02-.03.04-.05.07-.02.02-.03.04-.05.05-.02.02-.03.03-.05.04-.02.01-.04.02-.06.03-.02,0-.04.01-.06.01-.02,0-.03,0-.05,0-.02,0-.04,0-.05-.02-.01,0-.03-.01-.04-.03-.02-.01-.03-.02-.05-.04l-.19-.16.42-.49h0s0,0,0,0ZM9.96,12.23l-.26.3.07.06s.02.02.03.03c.01,0,.02.01.03.02,0,0,.02,0,.03,0,0,0,.02,0,.03,0,0,0,.02,0,.03,0,.01,0,.02,0,.03-.02.01,0,.02-.02.04-.03.01-.01.03-.03.04-.05.02-.02.03-.03.04-.05.01-.01.02-.03.02-.04,0-.01,0-.02.01-.03,0-.01,0-.02,0-.03,0,0,0-.02,0-.03,0,0,0-.02-.02-.03h0s-.01-.02-.03-.03c-.01-.01-.03-.03-.05-.04l-.04-.03h0ZM10.48,13.24l-.12-.08.03-.15-.2-.13-.12.09-.13-.08.56-.41.12.08-.13.68h0s0,0,0,0ZM10.42,12.89l.04-.21-.17.13.13.08ZM10.55,13.26l.29-.56.13.07-.24.46.28.15-.06.11c-.14-.07-.27-.14-.41-.21h0s0,0,0,0ZM11.58,13.44l.03-.11c.09.03.18.06.28.08-.03.08-.05.17-.08.25h0s-.04.02-.06.02c-.02,0-.05,0-.07.01-.03,0-.05,0-.08,0-.03,0-.05,0-.08-.02-.03,0-.06-.02-.09-.04-.03-.02-.05-.03-.07-.05-.02-.02-.04-.04-.05-.07-.01-.03-.02-.05-.02-.08,0-.03,0-.06,0-.09,0-.03,0-.06.02-.09,0-.03.02-.06.04-.09.02-.03.03-.05.05-.07.02-.02.04-.04.07-.05.03-.01.05-.02.08-.03.02,0,.05,0,.07,0,.03,0,.05,0,.08.02.04.01.07.03.1.04.03.02.05.04.07.06.02.02.03.05.04.07,0,.03,0,.06,0,.09h0s-.14,0-.14,0h0s0-.04,0-.05c0-.01-.01-.03-.02-.04,0-.01-.02-.02-.03-.03-.01,0-.03-.02-.04-.02-.03,0-.05-.01-.07,0-.02,0-.04,0-.06.02-.02.01-.04.03-.05.05-.02.02-.03.05-.04.08-.01.03-.02.07-.02.09,0,.03,0,.05.01.07,0,.02.02.04.04.05.02.01.04.03.06.03.01,0,.02,0,.04,0,.01,0,.03,0,.04,0,.01,0,.03,0,.04,0,.01,0,.02,0,.03,0l.02-.06-.14-.04h0s0,0,0,0ZM11.89,13.77l.13-.62.14.03-.11.5.31.06-.02.12c-.15-.03-.3-.06-.45-.09h0s0,0,0,0ZM12.41,13.56s0-.06.01-.09c0-.03.02-.05.03-.07,0-.02.02-.03.03-.04.01-.01.02-.03.04-.04.01-.01.03-.02.04-.03.01,0,.03-.02.05-.02.02,0,.04-.01.07-.01.02,0,.05,0,.07,0,.05,0,.09.01.13.03.04.02.07.04.1.07.03.03.05.07.06.11.01.04.02.09.01.14,0,.05-.01.1-.03.14-.02.04-.04.07-.07.1-.03.03-.06.05-.1.06-.04.01-.08.02-.13.01-.05,0-.09-.01-.13-.03-.04-.02-.07-.04-.1-.07-.03-.03-.05-.07-.06-.11-.01-.04-.02-.09-.01-.14h0ZM12.56,13.57s0,.07,0,.09c0,.03.02.05.03.07.01.02.03.03.05.04.02.01.04.02.06.02.02,0,.05,0,.07,0,.02,0,.04-.02.06-.04.02-.02.03-.04.04-.06,0-.03.02-.06.02-.09,0-.04,0-.07,0-.09,0-.03-.02-.05-.03-.07-.01-.02-.03-.03-.05-.04-.02,0-.04-.02-.07-.02-.03,0-.05,0-.07,0-.02,0-.04.02-.06.03-.02.02-.03.04-.04.06,0,.03-.02.06-.02.09h0ZM13.09,13.28h.25s.05,0,.07,0c.02,0,.03,0,.05,0,.01,0,.03,0,.04,0,.01,0,.02,0,.03.02.01,0,.02.01.03.02,0,0,.02.02.02.03,0,.01.01.02.02.04,0,.01,0,.03,0,.04,0,.02,0,.03,0,.04,0,.01,0,.03-.02.04,0,.01-.02.02-.03.03,0,0-.01.01-.02.02.01,0,.02.01.04.02.02,0,.03.02.04.04.01.01.02.03.03.05,0,.02,0,.03,0,.05,0,.01,0,.03,0,.04,0,.01,0,.03-.01.04,0,.01-.01.03-.02.04,0,.01-.02.02-.03.03-.01,0-.03.02-.04.02-.01,0-.03,0-.05.01h0s-.03,0-.05,0c-.03,0-.06,0-.1,0h-.22c0-.21,0-.42-.01-.64h0s0,0,0,0ZM13.23,13.4v.13s.08,0,.08,0c.02,0,.04,0,.06,0,.01,0,.03,0,.03,0,.01,0,.02,0,.03,0,0,0,.01,0,.02-.01,0,0,0-.01.01-.02,0,0,0-.02,0-.02,0,0,0-.02,0-.02,0,0,0-.01-.01-.02,0,0-.01,0-.02-.01,0,0-.02,0-.03,0,0,0-.02,0-.04,0-.02,0-.04,0-.07,0h-.06s0,0,0,0ZM13.23,13.65v.15s.11,0,.11,0c.02,0,.04,0,.06,0,.01,0,.02,0,.03,0h0s.02,0,.02,0c0,0,.01,0,.02-.01,0,0,0-.01.01-.02,0,0,0-.02,0-.03,0,0,0-.02,0-.02,0,0,0-.01,0-.02,0,0,0-.01-.02-.01,0,0-.01,0-.02-.01,0,0-.02,0-.04,0-.02,0-.04,0-.07,0h-.09s0,0,0,0ZM14.3,13.82l-.14.02-.07-.13-.24.04-.03.15-.15.02c.05-.22.1-.45.15-.67l.14-.02c.12.2.23.4.35.6h-.01ZM14.02,13.6l-.1-.19-.04.21.15-.02h0ZM14.36,13.8l-.15-.61.14-.03.12.5.31-.07.03.12-.45.11h0ZM14.85,13.01l.12-.05.14.32s.02.04.03.06.01.03.02.03c0,.01.02.02.02.02,0,0,.02.01.03.01.01,0,.02,0,.04,0,.01,0,.03,0,.04-.01.02,0,.03-.01.04-.02,0,0,.02-.02.02-.03,0,0,0-.02,0-.03,0,0,0-.02,0-.03,0-.01,0-.02-.01-.04,0-.02-.01-.04-.02-.06l-.14-.33.13-.06.13.31s.03.06.04.09c0,.03.02.05.02.06,0,.02,0,.03,0,.05,0,.02,0,.03,0,.04,0,.01-.01.03-.02.04,0,.01-.02.03-.03.04-.01.01-.03.02-.04.04-.02.01-.04.02-.06.03-.03.01-.05.02-.08.03-.02,0-.04,0-.06,0-.02,0-.03,0-.05,0-.02,0-.03,0-.04-.02-.01,0-.02-.01-.04-.02-.01,0-.02-.02-.03-.03-.01-.02-.02-.03-.04-.06-.01-.02-.03-.05-.04-.08l-.14-.31h0s0,0,0,0ZM15.67,13.34l-.3-.56.12-.06.4.24-.19-.35.12-.06c.1.19.2.38.3.57l-.12.06-.4-.23.18.35-.12.06h0s0,0,0,0ZM16.21,13.03l-.35-.53.12-.08h0s.11-.08.11-.08l.4.26-.16-.44.12-.09h0s.33-.34.33-.34l.09.08-.23.24.09.09.22-.23.09.08-.22.23.11.11.24-.25.09.08c-.11.12-.23.24-.34.36-.15-.15-.31-.29-.46-.44l.22.64-.12.09-.55-.34.33.5-.12.08h0s0,0,0,0ZM17.31,12.08l-.5-.39.17-.22s.04-.05.06-.07c.02-.02.03-.03.05-.04.01,0,.03-.02.05-.02.02,0,.03,0,.05,0,.02,0,.03,0,.05.01.02,0,.03.02.05.03.02.02.03.03.05.05.01.02.02.04.02.06,0,.02,0,.04,0,.07,0,.02-.01.03-.02.05,0,0,.02,0,.02,0,.01,0,.03,0,.04,0,.01,0,.03,0,.05,0,.02,0,.05,0,.07,0l.16.02-.1.13h-.17c-.06-.02-.1-.02-.11-.02,0,0-.02,0-.02,0,0,0-.01,0-.02,0,0,0-.01,0-.02.02,0,0-.02.02-.02.03h-.01s.21.18.21.18l-.09.11h0s0,0,0,0ZM17.11,11.74l.05-.07s.03-.04.04-.06c.01-.02.02-.03.02-.03,0,0,0-.01,0-.02,0,0,0-.01,0-.02h0s0-.01,0-.02c0,0-.01-.01-.02-.02,0,0-.02-.01-.02-.01,0,0-.01,0-.02,0,0,0-.01,0-.02,0,0,0-.01,0-.02.01,0,0-.01.01-.02.02,0,.01-.02.03-.04.05l-.06.07.11.09h0ZM17.5,11.5l.05-.12h0s.04.01.05.01c.02,0,.03,0,.04,0,.01,0,.02-.01.04-.02.01-.01.02-.02.03-.04,0-.02.02-.03.02-.05,0-.01,0-.03,0-.04,0-.01,0-.02-.01-.03,0,0-.01-.01-.02-.02,0,0-.01,0-.02,0,0,0-.01,0-.02,0,0,0-.01,0-.02,0,0,0-.01.01-.02.02,0,0-.01.01-.03.03-.01.01-.03.03-.05.05-.02.03-.05.05-.07.06-.02.02-.04.03-.06.03-.03,0-.05.01-.07.01-.02,0-.05,0-.07-.02-.01,0-.03-.02-.04-.03s-.02-.03-.03-.04c0-.02-.01-.03-.02-.05,0-.02,0-.04,0-.05,0-.02,0-.04.01-.06,0-.02.02-.04.03-.06.02-.04.04-.06.06-.09.02-.02.05-.04.07-.05.03,0,.05-.01.08-.01.03,0,.05,0,.08.02h0s-.06.13-.06.13h0s-.03-.01-.04-.01c-.01,0-.02,0-.03,0,0,0-.02.01-.03.02,0,0-.02.02-.03.04,0,.02-.01.03-.02.04,0,.01,0,.03,0,.04,0,0,0,.01,0,.02,0,0,0,0,.01.01,0,0,.01,0,.02,0,0,0,.01,0,.02,0h0s.02-.01.04-.02c.02-.01.03-.03.05-.06.02-.02.04-.04.06-.06.02-.02.03-.03.05-.04.01,0,.03-.02.04-.02.02,0,.03,0,.05,0,.02,0,.03,0,.05,0,.02,0,.03.01.05.02.02,0,.03.02.04.03.01.01.02.03.03.04,0,.02.02.03.02.05,0,.02,0,.04,0,.06,0,.02,0,.04-.01.06,0,.02-.02.05-.03.07-.02.04-.04.06-.06.09-.02.02-.05.04-.08.05-.03.01-.06.01-.09.01-.03,0-.06,0-.1-.02h0s0-.01,0-.01h0ZM17.97,11.06l-.57-.27.06-.13h0s.16-.47.16-.47h0s.02-.14.02-.14l.26-.1-.22-.18.03-.16.33.29.27.04-.02.14-.27-.04-.37.16.08.03-.06.17.49.17-.05.14-.49-.17-.06.18h-.02s.48.23.48.23l-.06.13h0Z"/>
      </g>
      <g>
        <path class="cls-2" d="M12.61,10.66v.16l.04.02c.18.08.37.12.55.12h0c.18,0,.37-.04.55-.12l.04-.02v-.16l-.05-.02s-.06-.03-.09-.04c-.03-.02-.05-.03-.07-.05l-.04-.04s-.02-.04,0-.05c0,0,0,0,0,0l.04-.03s.01,0,.02-.01c0,0,.01,0,.02-.01.05-.04.1-.1.14-.17.04-.06.06-.12.07-.18h0s0,0,0,0h0s0-.03,0-.05c0-.02,0-.03,0-.04h0s0,0,0,0c0-.02-.02-.04-.04-.06,0,0,0,0,0,0,.02,0,.04,0,.06.01.01.02.02.03.03.05h0s.01.05.01.07h0s0,.02,0,.03h0s0,.01,0,.02h0s0,0,0,0c0,0,0,0,0,0h0s0,.02,0,.03h0s0,.02,0,.03h0s0,.02,0,.02h0s0,.02-.01.03h0s0,.02-.01.02h0s0,.02-.01.03h0s0,.02-.01.02h0s-.01.02-.02.03h0s-.01.02-.02.02h0s-.01.02-.02.03h0s-.01.02-.02.02h0s-.02.02-.03.03h0s-.02.02-.03.03h0s-.01.01-.02.02c0,0-.02.01-.03.02h0s0,0-.01,0l-.04.03h0s0,0,0,0l.04.04s.1.07.16.09l.07.03h0v.21h0s0,0,0,0l-.04.02h0s-.02,0-.02,0c-.02,0-.03.01-.05.02h0c-.11.04-.22.07-.33.09h0c-.05,0-.1.01-.15.01h0s-.06,0-.09,0h0s0,0,0,0c-.05,0-.1,0-.16-.01h0s-.05,0-.08-.01h0s-.04,0-.06-.01h0s-.03,0-.04-.01h0s-.04-.01-.06-.02h0s-.04-.01-.06-.02h0s-.04-.01-.06-.02h-.04s0-.01,0-.01h0s-.03-.01-.03-.01v-.21l.07-.03c.06-.02.11-.05.16-.09l.04-.04h0s0,0,0,0h-.01s0,0,0,0l-.03-.02h0s0,0,0,0c0,0-.02-.01-.03-.02h0s0,0,0,0c0,0-.02-.01-.02-.02h0s-.02-.02-.03-.02h0s-.02-.02-.03-.03h0s-.01-.02-.02-.03h0s-.02-.02-.03-.03h0s-.01-.02-.02-.03h0s-.01-.02-.02-.03h0s-.01-.02-.02-.03h0s-.01-.02-.02-.03h0s0-.02-.01-.03h0s0-.02-.01-.03h0s0-.02,0-.03h0s0-.02,0-.02h0s0,0,0,0h0s0,0,0,0c0,0,0-.02,0-.03h0s0-.02,0-.03h0s0,0,0,0h0s0-.03,0-.05h0s0-.02.01-.03c.01,0,.02,0,.04,0,0,0,0,.02-.01.03h0s0,.03,0,.05c0,.02,0,.03,0,.05h0s0,0,0,0h0c0,.06.03.13.07.19.04.07.09.13.14.17,0,0,.01.01.02.01,0,0,.01,0,.02.01l.04.03s.02.03,0,.05c0,0,0,0,0,0l-.04.04s-.05.04-.07.05c-.03.02-.06.03-.09.04l-.05.02h0Z"/>
        <path class="cls-6" d="M13.9,9.95s.01,0,.02,0c.06.02.11.03.17.03.06,0,.12,0,.17-.03h0c.06-.02.12-.03.18-.03.06,0,.12,0,.18.03,0,0,0,0,0,.02,0,0,0,.01-.01,0-.06-.02-.12-.03-.17-.03-.06,0-.11.01-.17.03h0c-.06.02-.12.03-.18.03-.06,0-.12-.01-.18-.03h0s0,0-.01,0c0,0,0-.02,0-.03h0ZM11.8,9.98s0,0,0-.02c0,0,0-.01.01,0,.06.02.12.03.17.03.06,0,.11-.01.17-.03h0c.06-.02.12-.03.18-.03.06,0,.12.01.18.03h0s0,0,.01,0c0,0,0,0,0,0h0s0,0,0,0h0s0,.01,0,.02c0,0-.01,0-.02,0h0c-.06-.02-.11-.03-.17-.03-.06,0-.12,0-.17.03-.06.02-.12.03-.18.03-.06,0-.12,0-.18-.03h0ZM13.89,10.02s.01,0,.02,0c.06.02.11.03.17.03.06,0,.12,0,.17-.03h0c.06-.02.12-.03.18-.03.06,0,.12,0,.18.03,0,0,0,0,0,.02,0,0,0,.01-.01,0-.06-.02-.12-.03-.17-.03-.06,0-.11.01-.17.03h0c-.06.02-.12.03-.18.03-.06,0-.12-.01-.18-.03h0s-.01,0-.02,0c0,0,0,0,0,0h0s0,0,0,0c0,0,0,0,0-.01h0ZM11.8,10.06s0,0,0-.02c0,0,0-.01.01,0,.06.02.12.03.17.03.06,0,.11-.01.17-.03h0c.06-.02.12-.03.18-.03.06,0,.12.01.18.03h0s.01,0,.02,0h0s0,0,0,0c0,0,0,.02,0,.02,0,0-.02,0-.03,0h0c-.06-.02-.11-.03-.17-.03-.06,0-.12,0-.17.03-.06.02-.12.03-.18.03-.06,0-.12,0-.18-.03h0ZM13.88,10.09s.02,0,.04.01c.06.02.11.03.17.03.06,0,.12,0,.17-.03h0c.06-.02.12-.03.18-.03.06,0,.12,0,.18.03,0,0,0,0,0,.02,0,0,0,.01-.01,0-.06-.02-.12-.03-.17-.03-.06,0-.11.01-.17.03h0c-.06.02-.12.03-.18.03-.06,0-.12-.01-.18-.03h0s-.02,0-.04-.01c0,0,0,0,0-.01h0s0,0,0-.01ZM11.8,10.13s0,0,0-.02c0,0,0-.01.01,0,.06.02.12.03.17.03.06,0,.11-.01.17-.03h0c.06-.02.12-.03.18-.03.06,0,.12.01.18.03h0s.02,0,.03.01c0,0,0,0,0,.01h0s0,.01,0,.02c-.02,0-.03,0-.05-.02h0c-.06-.02-.11-.03-.17-.03-.06,0-.12,0-.17.03-.06.02-.12.03-.18.03-.06,0-.12,0-.18-.03h0ZM13.86,10.16s.04.01.06.02c.06.02.11.03.17.03.06,0,.12,0,.17-.03h0c.06-.02.12-.03.18-.03.06,0,.12,0,.18.03,0,0,0,0,0,.02,0,0,0,.01-.01,0-.06-.02-.12-.03-.17-.03-.06,0-.11.01-.17.03h0c-.06.02-.12.03-.18.03-.06,0-.12-.01-.18-.03h0s-.04-.01-.06-.02h0s0,0,0,0c0,0,0-.01,0-.02h0ZM11.8,10.2s0,0,0-.02c0,0,0-.01.01,0,.06.02.12.03.17.03.06,0,.11-.01.17-.03h0c.06-.02.12-.03.18-.03.06,0,.12.01.18.03h0s.05.01.07.02c0,0,0,.02.01.02h0s0,0,0,0c-.03,0-.06-.01-.09-.02h0c-.06-.02-.11-.03-.17-.03-.06,0-.12,0-.17.03-.06.02-.12.03-.18.03-.06,0-.12,0-.18-.03h0ZM13.82,10.22s.06.01.09.02c.06.02.11.03.17.03.06,0,.12,0,.17-.03h0c.06-.02.12-.03.18-.03.06,0,.12,0,.18.03,0,0,0,0,0,.02,0,0,0,.01-.01,0-.06-.02-.12-.03-.17-.03-.06,0-.11.01-.17.03h0c-.06.02-.12.03-.18.03-.06,0-.12-.01-.18-.03h0s-.07-.02-.1-.02c0,0,0-.01.01-.02h0s0,0,0,0h0ZM11.8,10.27s0,0,0-.02c0,0,0-.01.01,0,.06.02.12.03.17.03.06,0,.11-.01.17-.03h0c.06-.02.12-.03.18-.03.06,0,.12.01.18.03h0s.08.02.12.03c0,0,0,0,0,0h0s0,.01.02.02c-.05,0-.1-.01-.14-.03h0c-.06-.02-.11-.03-.17-.03-.06,0-.12,0-.17.03-.06.02-.12.03-.18.03-.06,0-.12,0-.18-.03h0ZM13.78,10.29s.09.01.14.03c.06.02.11.03.17.03.06,0,.12,0,.17-.03h0c.06-.02.12-.03.18-.03.06,0,.12,0,.18.03,0,0,0,0,0,.02,0,0,0,.01-.01,0-.06-.02-.12-.03-.17-.03-.06,0-.11.01-.17.03h0c-.06.02-.12.03-.18.03-.06,0-.12-.01-.18-.03h0s-.1-.03-.15-.03h0s0,0,0,0c0,0,.01-.01.02-.02h0ZM11.8,10.35s0,0,0-.02c0,0,0-.01.01,0,.06.02.12.03.17.03.06,0,.11-.01.17-.03h0c.06-.02.12-.03.18-.03.06,0,.12.01.18.03h0c.06.02.12.03.17.03h0s.01.02.02.02h0s0,0,0,0c0,0-.02,0-.03,0-.06,0-.12-.01-.18-.03h0c-.06-.02-.11-.03-.17-.03-.06,0-.12,0-.17.03-.06.02-.12.03-.18.03-.06,0-.12,0-.18-.03h0ZM13.72,10.36s0,0,.01,0c.06,0,.12,0,.18.03.06.02.11.03.17.03.06,0,.12,0,.17-.03h0c.06-.02.12-.03.18-.03.06,0,.12,0,.18.03,0,0,0,0,0,.02,0,0,0,.01-.01,0-.06-.02-.12-.03-.17-.03-.06,0-.11.01-.17.03h0c-.06.02-.12.03-.18.03-.06,0-.12-.01-.18-.03h0c-.06-.02-.12-.03-.17-.03-.01,0-.03,0-.04,0,0,0,.01-.01.02-.02h0s0,0,0,0h0ZM11.8,10.42s0,0,0-.02c0,0,0-.01.01,0,.06.02.12.03.17.03.06,0,.11-.01.17-.03h0c.06-.02.12-.03.18-.03.06,0,.12.01.18.03h0c.06.02.12.03.17.03.03,0,.05,0,.07,0,0,0,0,0,0,0h0s.01,0,.02.01c-.03,0-.07.01-.1.01-.06,0-.12-.01-.18-.03h0c-.06-.02-.11-.03-.17-.03-.06,0-.12,0-.17.03-.06.02-.12.03-.18.03-.06,0-.12,0-.18-.03h0ZM13.62,10.45s.08-.01.12-.01c.06,0,.12,0,.18.03.06.02.11.03.17.03.06,0,.12,0,.17-.03h0c.06-.02.12-.03.18-.03.06,0,.12,0,.18.03,0,0,0,0,0,.02,0,0,0,.01-.01,0-.06-.02-.12-.03-.17-.03-.06,0-.11.01-.17.03h0c-.06.02-.12.03-.18.03-.06,0-.12-.01-.18-.03h0c-.06-.02-.12-.03-.17-.03-.05,0-.1,0-.15.02h0s0,0,0,0h0s.04-.03.04-.03h0ZM11.8,10.49s0,0,0-.02c0,0,0-.01.01,0,.06.02.12.03.17.03.06,0,.11-.01.17-.03h0c.06-.02.12-.03.18-.03.06,0,.12.01.18.03h0c.06.02.12.03.17.03.05,0,.1,0,.15-.02h0s0,0,0,0h0s-.03.03-.03.03c-.04,0-.08.01-.12.01-.06,0-.12-.01-.18-.03h0c-.06-.02-.11-.03-.17-.03-.06,0-.12,0-.17.03-.06.02-.12.03-.18.03-.06,0-.12,0-.18-.03h0ZM13.63,10.52s.07-.01.11-.01c.06,0,.12,0,.18.03.06.02.11.03.17.03.06,0,.12,0,.17-.03h0c.06-.02.12-.03.18-.03.06,0,.12,0,.18.03,0,0,0,0,0,.02,0,0,0,.01-.01,0-.06-.02-.12-.03-.17-.03-.06,0-.11.01-.17.03h0c-.06.02-.12.03-.18.03-.06,0-.12-.01-.18-.03h0c-.06-.02-.12-.03-.17-.03-.03,0-.05,0-.08,0,0,0-.02-.01-.03-.02h0ZM11.8,10.56s0,0,0-.02c0,0,0-.01.01,0,.06.02.12.03.17.03.06,0,.11-.01.17-.03h0c.06-.02.12-.03.18-.03.06,0,.12.01.18.03h0c.06.02.12.03.17.03.01,0,.03,0,.04,0-.02,0-.04.02-.05.03-.06,0-.11-.01-.17-.03h0c-.06-.02-.11-.03-.17-.03-.06,0-.12,0-.17.03-.06.02-.12.03-.18.03-.06,0-.12,0-.18-.03h0ZM13.72,10.58s0,0,.01,0c.06,0,.12,0,.18.03.06.02.11.03.17.03.06,0,.12,0,.17-.03h0c.06-.02.12-.03.18-.03.06,0,.12,0,.18.03,0,0,0,0,0,.02,0,0,0,.01-.01,0-.06-.02-.12-.03-.17-.03-.06,0-.11.01-.17.03h0c-.06.02-.12.03-.18.03-.06,0-.12-.01-.18-.03h0s-.08-.02-.13-.03h0s-.04-.02-.05-.03h0ZM11.8,10.64s0,0,0-.02c0,0,0-.01.01,0,.06.02.12.03.17.03.06,0,.11-.01.17-.03h0c.06-.02.12-.03.18-.03.06,0,.12.01.18.03h0s.05.01.07.02h0v.02h0s-.05,0-.07-.01h0c-.06-.02-.11-.03-.17-.03-.06,0-.12,0-.17.03-.06.02-.12.03-.18.03-.06,0-.12,0-.18-.03h0ZM13.84,10.66s.05.01.07.02c.06.02.11.03.17.03.06,0,.12,0,.17-.03h0c.06-.02.12-.03.18-.03.06,0,.12,0,.18.03,0,0,0,0,0,.02,0,0,0,.01-.01,0-.06-.02-.12-.03-.17-.03-.06,0-.11.01-.17.03h0c-.06.02-.12.03-.18.03-.06,0-.12-.01-.18-.03h0s-.04-.01-.06-.02v-.02h0s0,0,0,0ZM11.8,10.71s0,0,0-.02c0,0,0-.01.01,0,.06.02.12.03.17.03.06,0,.11-.01.17-.03h0c.06-.02.12-.03.18-.03.06,0,.12.01.18.03h0s.04.01.06.02h0v.03s-.05-.01-.07-.02h0c-.06-.02-.11-.03-.17-.03-.06,0-.12,0-.17.03-.06.02-.12.03-.18.03-.06,0-.12,0-.18-.03h0ZM13.84,10.74s.05.01.07.02c.06.02.11.03.17.03.06,0,.12,0,.17-.03h0c.06-.02.12-.03.18-.03.06,0,.12,0,.18.03,0,0,0,0,0,.02,0,0,0,.01-.01,0-.06-.02-.12-.03-.17-.03-.06,0-.11.01-.17.03h0c-.06.02-.12.03-.18.03-.06,0-.12-.01-.18-.03h0s-.04-.01-.06-.02h0v-.03h0ZM11.8,10.78s0,0,0-.02c0,0,0-.01.01,0,.06.02.12.03.17.03.06,0,.11-.01.17-.03h0c.06-.02.12-.03.18-.03.06,0,.12.01.18.03h0s.04.01.06.02h0v.03s-.05-.01-.07-.02h0c-.06-.02-.11-.03-.17-.03-.06,0-.12,0-.17.03-.06.02-.12.03-.18.03-.06,0-.12,0-.18-.03h0ZM13.84,10.81s.05.01.07.02c.06.02.11.03.17.03.06,0,.12,0,.17-.03h0c.06-.02.12-.03.18-.03.06,0,.12,0,.18.03,0,0,0,0,0,.02,0,0,0,.01-.01,0-.06-.02-.12-.03-.17-.03-.06,0-.11.01-.17.03h0c-.06.02-.12.03-.18.03-.06,0-.12-.01-.18-.03h0s-.04-.01-.06-.02v-.03h0ZM11.8,10.85s0,0,0-.02c0,0,0-.01.01,0,.06.02.12.03.17.03.06,0,.11-.01.17-.03h0c.06-.02.12-.03.18-.03.06,0,.12.01.18.03h0s.07.02.1.02h.03s.03.03.05.03h0c-.06,0-.12-.01-.18-.03h0c-.06-.02-.11-.03-.17-.03-.06,0-.12,0-.17.03-.06.02-.12.03-.18.03-.06,0-.12,0-.18-.03h0ZM13.77,10.87s.1.01.15.03c.06.02.11.03.17.03.06,0,.12,0,.17-.03h0c.06-.02.12-.03.18-.03.06,0,.12,0,.18.03,0,0,0,0,0,.02,0,0,0,.01-.01,0-.06-.02-.12-.03-.17-.03-.06,0-.11.01-.17.03h0c-.06.02-.12.03-.18.03-.06,0-.12-.01-.18-.03h0c-.06-.02-.12-.03-.17-.03-.01,0-.03,0-.04,0,.01,0,.02,0,.03-.01h0s.02,0,.04-.01h0ZM11.8,10.92s0,0,0-.02,0-.01.01,0c.06.02.12.03.17.03.06,0,.11-.01.17-.03h0c.06-.02.12-.03.18-.03.06,0,.12.01.18.03h0c.06.02.12.03.17.03.04,0,.07,0,.11-.01,0,0,.02,0,.03,0h0s.01,0,.02,0c-.05.02-.1.02-.15.02-.06,0-.12-.01-.18-.03h0c-.06-.02-.11-.03-.17-.03-.06,0-.12,0-.17.03-.06.02-.12.03-.18.03-.06,0-.12,0-.18-.03h0ZM13.25,10.98s.09.02.14.02c.06,0,.11,0,.17-.03h0c.06-.02.12-.03.18-.03.06,0,.12,0,.18.03.06.02.11.03.17.03.06,0,.12,0,.17-.03h0c.06-.02.12-.03.18-.03.06,0,.12,0,.18.03,0,0,0,0,0,.02,0,0,0,.01-.01,0-.06-.02-.12-.03-.17-.03-.06,0-.11.01-.17.03h0c-.06.02-.12.03-.18.03-.06,0-.12-.01-.18-.03h0c-.06-.02-.12-.03-.17-.03-.06,0-.11.01-.17.03-.06.02-.12.03-.18.03-.06,0-.12-.01-.18-.03h0s-.03-.01-.05-.01h0s0,0,0,0h0s.06,0,.09,0h0ZM11.8,11s0,0,0-.02c0,0,0-.01.01,0,.06.02.12.03.17.03.06,0,.11-.01.17-.03h0c.06-.02.12-.03.18-.03.06,0,.12.01.18.03h0c.06.02.12.03.17.03.06,0,.11,0,.17-.03h0s.05-.01.07-.02c.03,0,.05.01.08.01h0s0,0,0,0c-.05,0-.09.01-.14.03-.06.02-.12.03-.18.03-.06,0-.12-.01-.18-.03h0c-.06-.02-.11-.03-.17-.03-.06,0-.12,0-.17.03-.06.02-.12.03-.18.03-.06,0-.12,0-.18-.03ZM13.86,9.87s.04,0,.06.02c.06.02.11.03.17.03.06,0,.12,0,.17-.03h0c.06-.02.12-.03.18-.03.06,0,.12,0,.18.03,0,0,0,0,0,.02,0,0,0,.01-.01,0-.06-.02-.12-.03-.17-.03-.06,0-.11.01-.17.03h0c-.06.02-.12.03-.18.03-.06,0-.12-.01-.18-.03h0s-.02,0-.03,0c0-.01-.01-.02-.02-.03h0ZM11.8,9.91s0,0,0-.02c0,0,0-.01.01,0,.06.02.12.03.17.03.06,0,.11-.01.17-.03h0c.06-.02.12-.03.18-.03.06,0,.12.01.18.03h0s.02,0,.03,0c0,0,0,.02-.01.02,0,0-.02,0-.03,0h0c-.06-.02-.11-.03-.17-.03-.06,0-.12,0-.17.03-.06.02-.12.03-.18.03-.06,0-.12,0-.18-.03h0Z"/>
      </g>
      <g>
        <polygon class="cls-2" points="13.18 7.25 13.18 7.25 13.18 7.26 13.18 7.25"/>
        <path class="cls-3" d="M15.83,6.5c-.08.08-.15.16-.25.17.19,0,.3-.25.45-.27.03,0,.05,0,.07.02,0,0-.01,0-.02,0-.03.01-.04.04-.03.08,0,.03.03.06.05.08.02-.02.04-.05.06-.08.01-.03,0-.06-.03-.08,0,0-.01,0-.02,0,0-.01-.01-.03-.02-.03.02,0,.05-.01.06,0,0,0,0,.02,0,.02,0,.04.04.06.08.05.04,0,.07-.02.11-.04-.02-.03-.05-.06-.08-.08-.03-.02-.07-.01-.1.02,0,0,0,.01-.01.02-.01,0-.02,0-.04,0,.01-.01.02-.03.02-.04,0,0,.02,0,.02-.01.02-.02.02-.06,0-.09-.02-.03-.05-.04-.08-.06-.01.03-.02.07-.02.1,0,.04.02.06.06.06,0,0,0,0,.01,0,0,.02-.01.03-.03.04-.01,0-.05,0-.06.01-.08.02-.13.05-.2.12h0Z"/>
        <g>
          <path class="cls-3" d="M15.1,7.6c.04-.06.19-.21.29-.19.03,0,.05.03.06.05h.02s-.02-.05-.05-.06c.03-.01.07-.03.11-.01v-.02s0,0,0,0c-.02-.01-.04-.01-.07,0,.02-.02.02-.05.02-.07h-.02c0,.05-.04.08-.08.08-.08,0-.24.04-.31.14v.07l.02.03h0Z"/>
          <path class="cls-3" d="M15.84,7.4s-.09-.09-.14-.12c-.06-.03-.12-.01-.15.04-.02.03-.02.06-.01.09.02.06.08.09.14.07.06-.01.12-.05.16-.09h0Z"/>
          <path class="cls-3" d="M15.48,7.7s.07-.08.08-.13c.02-.05,0-.1-.06-.12-.03,0-.05,0-.08,0-.05.03-.06.08-.04.13.02.05.06.09.1.12h0Z"/>
          <path class="cls-3" d="M15.36,7.04c-.02.05-.03.11-.02.16,0,.06.05.1.1.1.03,0,.05-.01.07-.04.03-.04.03-.1-.01-.14-.04-.04-.09-.06-.14-.08h0Z"/>
        </g>
        <g>
          <path class="cls-3" d="M11.34,7.99c-.04-.06-.2-.2-.3-.18-.03,0-.05.03-.06.05h-.02s.02-.05.04-.06c-.03-.01-.07-.03-.11,0v-.02s0,0,0,0c.02-.01.04-.01.07,0-.02-.02-.02-.05-.03-.07h.02c0,.05.04.07.08.07.08,0,.24.03.32.13v.07s-.02.03-.02.03h0Z"/>
          <path class="cls-3" d="M10.6,7.82s.08-.1.14-.13c.06-.03.12-.02.16.03.02.03.02.06.01.09-.02.06-.07.09-.14.08-.06-.01-.12-.04-.17-.08h0Z"/>
          <path class="cls-3" d="M10.97,8.11s-.07-.08-.08-.13c-.02-.05,0-.1.05-.12.03-.01.05,0,.08,0,.05.02.07.08.05.13-.02.05-.05.09-.09.13Z"/>
          <path class="cls-3" d="M11.06,7.44c.02.05.03.11.03.16,0,.06-.05.1-.1.1-.03,0-.06-.01-.07-.03-.04-.04-.03-.1,0-.14.04-.04.09-.07.14-.09Z"/>
        </g>
        <g>
          <path class="cls-3" d="M15.07,6.75c.1-.04.19-.05.32-.07.2-.03.28-.23.16-.28h0s.05.02.07.05c.01-.06,0-.13-.04-.17h0s.04.03.05.06c0-.04.01-.06.03-.08h.01s-.02.05-.02.09c0,0,0,.04,0,.07,0-.02.04-.04.06-.06h0c-.06.05-.05.08-.07.14-.02.09-.06.15-.14.18.09,0,.18.03.26.1.04.03.08.03.11-.01h.01s-.03.05-.06.05c.02.02.04.03.05.05h-.01s-.06-.04-.09-.05c.01.02.02.06,0,.09h-.01c.02-.08-.05-.13-.14-.16-.19-.06-.38,0-.56.08v-.08s0,0,0,0Z"/>
          <path class="cls-3" d="M16.09,7.1c0-.06-.01-.13-.04-.18-.03-.06-.09-.08-.15-.06-.03.01-.05.04-.06.07-.02.06,0,.12.07.14.06.03.12.03.18.03h0Z"/>
          <path class="cls-3" d="M15.98,6.54s-.09.05-.13.09c-.04.04-.04.09,0,.13.02.02.04.03.07.03.05,0,.09-.04.09-.1,0-.05-.01-.1-.03-.15h0Z"/>
          <path class="cls-3" d="M15.57,7.11c.06,0,.12,0,.17-.03.06-.03.08-.08.06-.13-.01-.03-.03-.05-.06-.06-.05-.02-.11,0-.13.06-.02.05-.03.11-.03.17h0Z"/>
          <path class="cls-3" d="M15.92,6.33s-.08-.05-.12-.05c-.04,0-.08.02-.09.06,0,.02,0,.04.01.06.03.03.07.05.11.02.04-.02.07-.05.09-.09h0Z"/>
          <path class="cls-3" d="M15.33,6.42s.06-.07.1-.09c.04-.02.09-.01.11.03.01.02.02.04,0,.06-.01.04-.05.07-.1.05-.04,0-.08-.03-.12-.06h0Z"/>
          <path class="cls-3" d="M15.41,6.15s.09,0,.13,0c.04.01.07.05.06.09,0,.02-.02.04-.04.05-.04.02-.08.01-.11-.03-.03-.03-.04-.08-.05-.12h0Z"/>
          <path class="cls-3" d="M15.75,6.1s-.07.03-.1.06c-.03.03-.03.07-.01.1.01.02.03.03.05.03.04,0,.07-.03.08-.07,0-.04,0-.08-.01-.12Z"/>
        </g>
        <g>
          <path class="cls-3" d="M10.64,6.54c.08.08.14.17.25.19-.2,0-.29-.27-.45-.3-.03,0-.05,0-.07.02,0,0,.01,0,.02,0,.03.02.04.05.03.08-.01.03-.03.06-.06.08-.02-.02-.04-.05-.05-.08-.01-.03,0-.06.03-.08,0,0,.01,0,.02,0,0-.01.01-.03.03-.03-.02,0-.05-.02-.07,0,0,0,0,.02,0,.02-.01.04-.05.06-.09.05-.04,0-.07-.03-.11-.05.02-.03.05-.06.09-.08.04-.02.08-.01.1.02,0,0,0,.01,0,.02.01,0,.02,0,.04,0-.01-.01-.01-.03-.02-.04,0,0-.02,0-.02-.02-.02-.03-.02-.06,0-.09.02-.03.06-.04.09-.06.01.03.02.07.02.1,0,.04-.03.06-.06.06,0,0,0,0-.01,0,0,.02.01.03.02.04.01,0,.05.01.07.02.09.03.13.06.2.13h0Z"/>
          <g>
            <path class="cls-3" d="M11.34,6.81c-.08-.03-.16-.05-.27-.06-.21-.04-.27-.26-.15-.3h0s-.06.02-.07.05c0-.07,0-.13.06-.18h0s-.04.02-.05.06c0-.04-.01-.07-.02-.08h-.01s.02.05.02.09c0,0,0,.04,0,.07,0-.02-.03-.05-.05-.06h0c.06.06.05.09.07.15.02.09.05.15.13.19-.1,0-.19.02-.27.08-.04.03-.09.02-.11-.02h-.01s.03.05.06.06c-.03.01-.04.03-.06.05h.01s.07-.04.1-.04c-.02.02-.02.06,0,.09h.01c-.02-.09.06-.13.15-.15.18-.04.35,0,.51.08v-.08h0Z"/>
            <path class="cls-3" d="M10.34,7.14c0-.06.02-.13.05-.18.03-.06.1-.08.16-.05.03.01.05.04.06.07.02.06-.01.12-.08.14-.06.02-.13.03-.19.02h0Z"/>
            <path class="cls-3" d="M10.49,6.57s.09.05.13.09c.04.04.03.1,0,.14-.02.02-.05.03-.07.03-.05,0-.09-.05-.09-.1,0-.05.02-.11.04-.15h0Z"/>
            <path class="cls-3" d="M10.87,7.18c-.06,0-.12-.02-.17-.05-.06-.03-.07-.09-.05-.14.01-.03.04-.05.07-.06.06-.02.11.01.13.07.02.05.03.12.02.17Z"/>
            <path class="cls-3" d="M10.56,6.36s.08-.04.12-.05c.05,0,.08.02.09.06,0,.02,0,.05-.01.06-.03.03-.07.04-.11.02-.04-.02-.07-.06-.09-.1h0Z"/>
            <path class="cls-3" d="M11.15,6.48s-.06-.07-.1-.1c-.04-.03-.09-.02-.11.02-.01.02-.02.04-.01.07.01.04.05.07.1.06.04,0,.09-.03.13-.05h0Z"/>
            <path class="cls-3" d="M11.09,6.2s-.09-.01-.13,0c-.05,0-.07.05-.07.09,0,.02.02.04.03.06.04.02.08.02.11-.02.03-.03.04-.08.05-.12Z"/>
            <path class="cls-3" d="M10.74,6.13s.08.03.1.06c.03.03.03.07,0,.1-.01.02-.03.02-.05.02-.04,0-.07-.03-.07-.07,0-.04,0-.08.02-.12Z"/>
          </g>
        </g>
        <g>
          <path class="cls-3" d="M14.93,6.47c.05-.06.12-.24.08-.33-.01-.03-.04-.04-.06-.04v-.02s.05,0,.07.02c0-.03,0-.08-.02-.1h.01s0,0,0,0c.02.01.02.03.03.06.01-.03.03-.03.06-.04h0s-.05.07-.04.11c.03.07.04.23-.02.33l-.07.02h-.03s0-.01,0-.01Z"/>
          <path class="cls-3" d="M14.87,5.75c.06.02.11.05.15.09.05.04.05.11.01.15-.02.02-.05.04-.08.04-.06,0-.11-.04-.11-.1,0-.06,0-.12.02-.18h0Z"/>
          <path class="cls-3" d="M14.72,6.17s.06-.09.1-.11c.04-.03.09-.03.13.01.02.02.02.04.02.07,0,.05-.05.08-.1.08-.05,0-.1-.02-.14-.05Z"/>
          <path class="cls-3" d="M15.36,6.06s-.09.06-.14.07c-.05.01-.1-.01-.12-.06,0-.03,0-.05,0-.08.03-.04.08-.06.13-.03.05.02.09.06.12.1h0Z"/>
        </g>
        <g>
          <path class="cls-3" d="M11.79,6.29c0-.06-.07-.23-.15-.25-.02,0-.05,0-.06.01h0s.03-.04.06-.04c-.01-.02-.04-.05-.08-.05h0s0-.01,0-.01c.02,0,.03,0,.05.02,0-.03,0-.04,0-.06h.01s0,.08.03.09c.06.02.17.12.19.22l-.03.06h-.03s0,.01,0,.01Z"/>
          <path class="cls-3" d="M11.3,5.87s.1-.04.15-.04c.06,0,.1.03.1.09,0,.03,0,.05-.03.07-.04.04-.09.04-.13,0-.04-.03-.07-.08-.09-.13Z"/>
          <path class="cls-3" d="M11.46,6.23s-.02-.09-.01-.13c0-.05.04-.07.09-.07.02,0,.04.01.06.03.03.04.02.08-.02.11-.03.03-.07.05-.12.06h0Z"/>
          <path class="cls-3" d="M11.79,5.76s-.02.09-.04.13c-.03.04-.07.06-.11.03-.02-.01-.04-.03-.04-.05,0-.05.01-.09.06-.1.04-.02.09-.02.14-.01Z"/>
        </g>
        <path class="cls-3" d="M14.49,6.3c.09-.09.1-.24.03-.35-.02-.03-.05-.04-.09-.03,0,0,0,0,0,.01.02.04,0,.07-.03.09-.03.02-.07.03-.11.03,0-.04,0-.08.01-.11.01-.04.05-.06.09-.05.01,0,.02,0,.03.01.03-.01.05-.01.08,0-.03-.05-.07-.08-.13-.09,0,0,0,.01,0,.02-.01.04-.05.06-.09.05-.04,0-.07-.03-.1-.05.02-.03.05-.06.09-.07.04-.02.07,0,.09.03,0,0,0,.02,0,.03.03,0,.04,0,.07.02-.02-.03-.03-.05-.03-.06,0,0-.01,0-.02,0-.03,0-.06-.04-.05-.07,0-.03.02-.07.04-.1.03.02.06.04.08.07.02.03.02.07-.01.09,0,0-.01,0-.02,0,0,.01.01.04.03.06,0,0,.02.02.04.05,0-.02,0-.05,0-.07,0,0-.01-.01-.02-.02-.02-.03,0-.07.03-.09.03-.02.07-.03.11-.03,0,.04,0,.08,0,.11-.01.04-.05.06-.08.05,0,0-.01,0-.02,0-.01.06,0,.07.03.12.06.12.06.25-.04.37h-.02s0-.01,0-.01Z"/>
        <path class="cls-3" d="M12.02,6.28c-.08-.07-.09-.19-.04-.27.02-.02.04-.04.07-.03,0,0,0,0,0,.01-.01.03,0,.06.03.07.03.01.06.02.09.02,0-.03,0-.06-.02-.09-.01-.03-.04-.04-.07-.03,0,0-.01,0-.02.01-.02,0-.04,0-.06,0,.02-.04.05-.07.1-.08,0,0,0,0,0,.01.01.03.04.04.07.03.03,0,.05-.03.08-.05-.02-.02-.04-.04-.07-.05-.03-.01-.06,0-.07.02,0,0,0,.01,0,.02-.02,0-.03,0-.06.02.01-.02.02-.04.02-.05,0,0,.01,0,.02,0,.03,0,.04-.03.04-.06,0-.03-.02-.05-.03-.07-.02.02-.04.03-.06.06-.02.02,0,.05.01.07,0,0,0,0,.01,0,0,.01,0,.03-.02.05,0,0-.01.02-.03.04,0-.02,0-.04,0-.05,0,0,0-.01.01-.02.01-.03,0-.06-.03-.07-.03-.01-.06-.02-.09-.02,0,.03,0,.06.01.09.01.03.04.04.07.03,0,0,0,0,.01,0,.01.05,0,.06-.02.1-.04.1-.04.2.05.29h.02s0-.01,0-.01Z"/>
        <path class="cls-2" d="M13.61,5.61c.12-.02.18-.08.35-.08.03,0,.06,0,.07-.04,0,0-.01,0-.02,0-.04,0-.06-.04-.05-.08,0-.04.02-.07.04-.1.03.02.06.04.08.07.02.03.02.07-.01.09,0,0-.01,0-.02.01,0,.02,0,.03-.02.04.02,0,.05,0,.07-.01,0,0,0-.02,0-.03,0-.04.03-.08.08-.08.04,0,.09,0,.13.02-.02.04-.04.08-.07.11-.03.03-.08.03-.11,0,0,0-.01-.01-.02-.02-.01.01-.02.01-.04.02.02.01.02.03.03.04.01,0,.02,0,.03.01.03.02.04.06.02.1-.02.03-.05.06-.08.08-.02-.03-.04-.07-.05-.1,0-.04.01-.07.05-.08,0,0,.01,0,.02,0,0-.02-.02-.03-.04-.03-.02,0-.05,0-.07,0-.16,0-.22.06-.35.06Z"/>
        <path class="cls-2" d="M12.67,5.59c-.1.03-.15.03-.21.03-.03,0-.06,0-.08.03,0,0,.01,0,.02,0,.04.01.05.05.04.09,0,.04-.03.07-.05.1-.03-.02-.06-.05-.07-.09-.02-.04,0-.07.03-.09,0,0,.01,0,.02,0,0-.02.01-.03.03-.04-.02,0-.05-.01-.08,0,0,0,0,.02,0,.03,0,.04-.04.07-.09.07-.04,0-.09-.02-.13-.04.02-.04.05-.08.09-.1.04-.03.09-.02.12.01,0,0,.01.02.01.02.01,0,.03-.01.05-.01-.02-.01-.02-.03-.02-.05-.01,0-.02,0-.03-.02-.03-.03-.03-.07,0-.1.02-.03.06-.06.09-.08.02.04.03.07.03.11,0,.04-.02.07-.06.08,0,0-.01,0-.02,0,0,.02.02.04.03.04.08.03.2.02.28,0h0Z"/>
        <path class="cls-2" d="M13.14,5.63s-.01-.29-.11-.27c0,0,0,.01,0,.02,0,.03,0,.06-.04.08-.03.01-.07.01-.1,0,0-.03.01-.07.03-.1.02-.03.05-.04.08-.03,0,0,.01,0,.02.01.02,0,.03,0,.04,0,0-.02-.02-.05-.04-.06,0,0-.01.01-.02.01-.04.02-.08,0-.1-.04-.02-.03-.03-.08-.03-.12.04,0,.08,0,.12.02.04.01.06.05.05.09,0,0,0,.02-.01.02.01,0,.02.01.03.03,0-.02.01-.03.02-.04,0,0,0-.02,0-.03,0-.04.04-.06.07-.06.04,0,.07.02.1.03-.02.03-.04.06-.07.08-.03.02-.07.02-.09,0,0,0,0,0,0-.01-.01.01-.02.03-.01.04.02.06.08.09.06.3h0Z"/>
        <path class="cls-3" d="M13.23,5.85s0-.08.04-.15c0,0,.04-.07.15-.08.08,0,.17.05.14.15,0,0-.02,0-.03,0-.06,0-.11.05-.12.11,0,.06,0,.13.03.19.06-.02.12-.05.16-.1.05-.05.05-.11.01-.16-.01-.01-.02-.02-.04-.03.01-.02.03-.08-.03-.15.03,0,.08.03.11.06,0,.02-.01.04-.01.06,0,.08.05.14.13.15.07,0,.15,0,.23-.03-.02-.07-.06-.14-.11-.2-.05-.06-.13-.06-.2-.02-.01,0-.02.02-.03.03-.02-.01-.04-.04-.09-.06,0,0,.04,0,.07-.06.02,0,.03.01.05.01.07,0,.12-.04.13-.12,0-.07,0-.14-.02-.2-.06.02-.13.05-.18.1-.05.05-.06.12-.02.17,0,0,.02.02.03.02,0,0-.02.04-.07.04,0,0-.02,0-.05,0,0,0,.04-.05.01-.11.01,0,.02-.02.03-.03.02-.05,0-.11-.05-.14-.05-.03-.11-.04-.16-.04,0,.06,0,.11.02.17.02.06.07.08.13.07,0,0,.02,0,.02-.01,0,.01.01.04,0,.06,0,0-.01.02-.04.03,0,0-.1-.03-.21.04,0,0-.07.03-.13.11,0,0-.02-.11-.17-.16,0,0-.08-.03-.18,0,0,0-.04.01-.05.02,0,0-.02,0-.03-.02.01,0,.02-.02.03-.04.02-.05,0-.11-.04-.14-.05-.03-.1-.04-.16-.05,0,.06,0,.12.01.17.02.06.07.09.12.07,0,0,.02,0,.02,0,0,0,.01.02.03.02-.04.02-.07.05-.08.1-.02,0-.04,0-.06.02-.03.02-.06.05-.07.09-.01.08.06.17.11.23.05-.05.09-.1.11-.16.02-.06,0-.12-.04-.15-.02-.01-.03-.02-.04-.02.01-.04.04-.07.08-.08,0,0,.03-.01.06-.01-.02.04-.02.08.01.11-.01.01-.02.02-.02.04-.01.05.01.1.06.11.05.02.1.02.15.01,0-.05-.02-.1-.04-.14-.03-.05-.08-.06-.12-.04,0,0,0,0-.01,0-.02-.02-.03-.06,0-.08.07-.06.26.03.26.23,0,0,0,.08,0,.12.01.23.11.46.22.64l.22-.09c-.16-.18-.26-.37-.27-.66h0Z"/>
        <path class="cls-2" d="M13.57,5.6s.04,0,.07-.06c.02,0,.03.01.05.01.07,0,.12-.04.13-.12,0-.07,0-.14-.02-.2-.06.02-.13.05-.18.1-.05.05-.06.12-.02.17,0,0,.02.02.03.02,0,0-.02.04-.07.04v.02Z"/>
        <path class="cls-2" d="M13.5,5.57s.04-.05.01-.11c.01,0,.02-.02.03-.03.02-.05,0-.11-.05-.14-.05-.03-.11-.04-.16-.04,0,.06,0,.11.02.17.02.06.07.08.13.07,0,0,.02,0,.02-.01,0,.01.01.04,0,.06,0,0-.01.02-.04.03h.04Z"/>
        <path class="cls-2" d="M12.72,5.57s-.02,0-.03-.02c.01,0,.02-.02.03-.04.02-.05,0-.11-.04-.14-.05-.03-.1-.04-.16-.05,0,.06,0,.12.01.17.02.06.07.09.12.07,0,0,.02,0,.02,0,0,0,.01.02.03.02h.01s0-.01,0-.01Z"/>
      </g>
      <path class="cls-2" d="M14.64,6.36v1.59l.17.29v-1.61l-.17-.28ZM13.21,6.4c-.06-.1-.15-.17-.25-.22-.11-.04-.26-.06-.45-.06-.11,0-.23,0-.35.02-.13.02-.26.04-.4.07l-.13.22-.33.02v2.14l1.57-.1c.07.03.13.05.19.06.05.01.1.02.15.02.05,0,.09,0,.15-.02.06-.01.12-.03.19-.06l1.57.1v-2.14l-.33-.02-.13-.22c-.14-.03-.27-.06-.4-.07-.13-.02-.24-.02-.35-.02-.19,0-.34.02-.45.06-.11.04-.19.11-.25.22h0ZM13.21,8.5s-.09,0-.14-.02c-.05-.01-.11-.03-.17-.06l-1.51.1v-2h.2s-.07.1-.07.1v1.77l1.43-.08c.07.05.15.08.26.08.1,0,.19-.03.26-.08l1.43.08v-1.77l-.07-.11h.2v2.01l-1.51-.1c-.06.03-.12.05-.17.06-.05.01-.09.02-.14.02h0ZM11.78,6.36v1.59l-.17.29v-1.61l.17-.28ZM12.21,7.97c.11-.01.22-.02.32-.02.21,0,.37.03.47.08.1.06.16.15.17.28-.09-.02-.15-.05-.19-.09l-1.3.09.17-.29c.13-.02.25-.04.36-.05h0ZM14.21,7.97c-.11-.01-.22-.02-.32-.02-.21,0-.37.03-.47.08-.1.06-.16.15-.17.28.09-.02.15-.05.19-.09l1.3.09-.17-.29c-.13-.02-.25-.04-.36-.05h0ZM13.21,6.56l.16.46h.49s-.39.31-.39.31l.14.47-.4-.28-.4.28.14-.47-.39-.3h.49s.16-.47.16-.47h0ZM12.65,7.06l.33.26h0l.23-.07-.35.48h0s.35-.24.35-.24v-.24s-.56-.18-.56-.18h0ZM13.21,6.65l-.14.4.14.19.56-.18h0s-.42-.01-.42-.01l-.14.19.23.07.12.4h0s-.35-.48-.35-.48v-.59s0,0,0,0h0Z"/>
    </g>
    <g>
      <path class="cls-9" d="M3.03,23.63h-.26l-.07.13h-.11l.34-.62h.12l.1.62h-.11l-.02-.13ZM3.02,23.55l-.05-.29-.16.29h.2ZM4.03,23.32s-.02.06-.04.09c-.02.03-.05.05-.08.07-.04.02-.08.03-.13.03h-.11l-.05.25h-.1l.12-.62h.21s.09,0,.12.02c.03.02.05.04.06.07.01.03.01.06,0,.09h0ZM3.79,23.42s.07,0,.09-.03c.02-.02.04-.04.04-.07.01-.07-.02-.1-.1-.1h-.11l-.04.2h.11ZM4.26,23.34s.04-.04.07-.06c.03-.01.06-.02.09-.02l-.02.11h-.03s-.07.01-.1.03c-.02.02-.04.06-.05.11l-.05.26h-.1l.09-.49h.1v.07s-.01,0-.01,0ZM4.61,23.2s-.03,0-.04-.02c-.01-.01-.01-.03,0-.05,0-.02.01-.03.03-.05.01-.01.03-.02.05-.02s.03,0,.04.02c.01.01.01.03,0,.05,0,.02-.01.03-.03.05-.01.01-.03.02-.05.02ZM4.65,23.27l-.09.49h-.1l.09-.49h.1ZM4.93,23.67l.22-.4h.11l-.28.49h-.12l-.09-.49h.11l.06.4ZM5.29,23.51s.03-.09.06-.13c.03-.04.06-.07.1-.09.04-.02.08-.03.12-.03.04,0,.07,0,.1.02.03.02.05.03.06.06v-.07h.12l-.09.49h-.1v-.07s-.03.04-.07.06c-.03.02-.07.02-.11.02-.04,0-.08-.01-.11-.03-.03-.02-.05-.05-.07-.09-.01-.04-.01-.08,0-.13ZM5.69,23.51s0-.06,0-.09c0-.02-.02-.04-.04-.06-.02-.01-.04-.02-.07-.02s-.05,0-.08.02-.05.03-.07.06c-.02.02-.03.05-.04.09,0,.03,0,.06,0,.09,0,.03.02.04.04.06.02.01.04.02.07.02s.05,0,.08-.02c.03-.01.05-.03.07-.06.02-.03.03-.05.04-.09h0ZM6.11,23.35l-.05.27s0,.03,0,.04c0,0,.02.01.04.01h.06l-.02.08h-.08s-.08-.01-.1-.03c-.02-.02-.03-.06-.02-.1l.05-.27h-.06l.02-.08h.06l.02-.12h.1l-.02.12h.12l-.02.08h-.12ZM6.77,23.5s0,.04-.01.05h-.37s0,.07.03.09c.02.02.05.04.09.04.05,0,.1-.02.13-.07h.11s-.06.08-.1.11-.1.04-.15.04c-.05,0-.09-.01-.12-.03-.03-.02-.06-.05-.07-.09-.01-.04-.02-.08,0-.13,0-.05.03-.09.06-.13.03-.04.06-.07.1-.09.04-.02.09-.03.13-.03s.09.01.12.03c.03.02.06.05.07.09.01.04.02.08,0,.13h0ZM6.67,23.47s0-.07-.02-.09c-.02-.02-.05-.03-.09-.03-.04,0-.07.01-.1.03-.03.02-.05.05-.06.09h.27ZM7.3,23.14l-.08.39s0,.08.02.11c.02.02.05.04.1.04s.08-.01.11-.04c.03-.02.05-.06.06-.11l.08-.39h.1l-.08.39c0,.05-.03.09-.06.13-.03.04-.06.06-.1.08-.04.02-.08.03-.13.03s-.08,0-.12-.03c-.03-.02-.06-.04-.07-.08-.01-.04-.02-.08,0-.13l.08-.39h.1ZM8.08,23.26s.07,0,.1.02c.03.02.05.04.06.07.01.03.01.07,0,.11l-.06.29h-.1l.05-.27s0-.08-.01-.1c-.02-.02-.05-.04-.08-.04s-.07.01-.1.04c-.03.02-.04.06-.05.1l-.05.27h-.1l.09-.49h.1v.06s.03-.04.06-.05c.03-.01.06-.02.09-.02h0ZM8.5,23.2s-.03,0-.04-.02c-.01-.01-.01-.03,0-.05,0-.02.01-.03.03-.05.01-.01.03-.02.05-.02s.03,0,.04.02c.01.01.01.03,0,.05,0,.02-.01.03-.03.05-.01.01-.03.02-.05.02ZM8.54,23.27l-.09.49h-.1l.09-.49h.1ZM8.82,23.67l.22-.4h.11l-.28.49h-.12l-.09-.49h.11l.06.4ZM9.66,23.5s0,.04-.01.05h-.37s0,.07.03.09c.02.02.05.04.09.04.05,0,.1-.02.13-.07h.11s-.06.08-.1.11-.1.04-.15.04c-.05,0-.09-.01-.12-.03-.03-.02-.06-.05-.07-.09-.01-.04-.02-.08,0-.13,0-.05.03-.09.06-.13.03-.04.06-.07.1-.09.04-.02.09-.03.13-.03s.09.01.12.03c.03.02.06.05.07.09.01.04.02.08,0,.13h0ZM9.56,23.47s0-.07-.02-.09c-.02-.02-.05-.03-.09-.03-.04,0-.07.01-.1.03-.03.02-.05.05-.06.09h.27ZM9.93,23.34s.04-.04.07-.06c.03-.01.06-.02.09-.02l-.02.11h-.03s-.07.01-.1.03c-.02.02-.04.06-.05.11l-.05.26h-.1l.09-.49h.1v.07s-.01,0-.01,0ZM10.3,23.77s-.07,0-.1-.02c-.03-.01-.05-.03-.06-.06-.01-.02-.02-.05-.01-.08h.11s0,.04.02.05c.02.01.04.02.06.02s.05,0,.07-.02c.02-.01.03-.03.03-.04,0-.02,0-.03-.02-.04-.02,0-.04-.02-.08-.03-.03-.01-.06-.02-.08-.03-.02,0-.04-.02-.05-.04-.01-.02-.02-.05-.01-.08,0-.03.02-.05.04-.07.02-.02.05-.04.08-.05.03-.01.07-.02.1-.02.06,0,.1.01.13.04.03.03.04.07.03.12h-.1s0-.04-.02-.05c-.01-.01-.03-.02-.06-.02s-.05,0-.06.02c-.02.01-.03.02-.03.04,0,.01,0,.02,0,.03,0,0,.02.02.03.02.01,0,.03.01.06.02.03,0,.06.02.08.03.02,0,.04.02.05.04.01.02.02.04.01.08,0,.03-.02.05-.04.07-.02.02-.04.04-.08.05-.03.01-.06.02-.1.02h0ZM10.79,23.2s-.03,0-.04-.02c-.01-.01-.01-.03,0-.05,0-.02.01-.03.03-.05.01-.01.03-.02.05-.02s.03,0,.04.02c.01.01.01.03,0,.05,0,.02-.01.03-.03.05-.01.01-.03.02-.05.02ZM10.82,23.27l-.09.49h-.1l.09-.49h.1ZM11.09,23.35l-.05.27s0,.03,0,.04c0,0,.02.01.04.01h.06l-.02.08h-.08s-.08-.01-.1-.03c-.02-.02-.03-.06-.02-.1l.05-.27h-.06l.02-.08h.06l.02-.12h.1l-.02.12h.12l-.02.08h-.12ZM11.8,23.27l-.44.72h-.11l.15-.24-.1-.48h.11l.07.37.22-.37h.11ZM12.56,23.32s-.02.06-.04.09c-.02.03-.05.05-.08.07-.04.02-.08.03-.13.03h-.11l-.05.25h-.1l.12-.62h.21s.09,0,.12.02c.03.02.05.04.06.07.01.03.01.06,0,.09h0ZM12.32,23.42s.07,0,.09-.03c.02-.02.04-.04.04-.07.01-.07-.02-.1-.1-.1h-.11l-.04.2h.11ZM12.79,23.34s.04-.04.07-.06c.03-.01.06-.02.09-.02l-.02.11h-.03s-.07.01-.1.03c-.02.02-.04.06-.05.11l-.05.26h-.1l.09-.49h.1v.07s-.01,0-.01,0ZM13.19,23.77s-.09-.01-.12-.03c-.03-.02-.06-.05-.07-.09-.01-.04-.02-.08,0-.13,0-.05.03-.09.06-.13.03-.04.07-.07.11-.09.04-.02.09-.03.13-.03s.09.01.12.03c.03.02.06.05.07.09.01.04.02.08,0,.13,0,.05-.03.09-.06.13-.03.04-.07.07-.11.09-.04.02-.09.03-.13.03ZM13.21,23.68s.05,0,.08-.02c.03-.01.05-.03.07-.06.02-.02.03-.06.04-.09,0-.04,0-.07,0-.09,0-.02-.02-.04-.04-.06-.02-.01-.04-.02-.07-.02s-.05,0-.08.02c-.02.01-.05.03-.06.06-.02.02-.03.05-.04.09-.01.05,0,.09.02.12.02.03.05.04.09.04ZM14.27,23.26s.07,0,.1.02c.03.02.05.04.06.07.01.03.01.07,0,.11l-.06.29h-.1l.05-.27s0-.08-.01-.1c-.02-.02-.05-.04-.08-.04s-.07.01-.1.04c-.03.02-.04.06-.05.1l-.05.27h-.1l.05-.27s0-.08-.01-.1c-.02-.02-.05-.04-.08-.04s-.07.01-.1.04c-.03.02-.04.06-.05.1l-.05.27h-.1l.09-.49h.1v.06s.03-.04.06-.05.06-.02.09-.02c.04,0,.07,0,.1.02.03.02.05.04.06.07.02-.03.05-.05.08-.07.03-.02.07-.03.11-.03h0ZM14.75,23.77s-.09-.01-.12-.03c-.03-.02-.06-.05-.07-.09-.01-.04-.02-.08,0-.13,0-.05.03-.09.06-.13.03-.04.07-.07.11-.09.04-.02.09-.03.13-.03s.09.01.12.03c.03.02.06.05.07.09.01.04.02.08,0,.13,0,.05-.03.09-.06.13-.03.04-.07.07-.11.09-.04.02-.09.03-.13.03h0ZM14.77,23.68s.05,0,.08-.02c.03-.01.05-.03.07-.06.02-.02.03-.06.04-.09,0-.04,0-.07,0-.09,0-.02-.02-.04-.04-.06-.02-.01-.04-.02-.07-.02s-.05,0-.08.02c-.02.01-.05.03-.06.06-.02.02-.03.05-.04.09-.01.05,0,.09.02.12.02.03.05.04.09.04h0ZM15.34,23.35l-.05.27s0,.03,0,.04c0,0,.02.01.04.01h.06l-.02.08h-.08s-.08-.01-.1-.03c-.02-.02-.03-.06-.02-.1l.05-.27h-.06l.02-.08h.06l.02-.12h.1l-.02.12h.12l-.02.08h-.12ZM15.67,23.2s-.03,0-.04-.02c-.01-.01-.01-.03,0-.05,0-.02.01-.03.03-.05.01-.01.03-.02.05-.02s.03,0,.04.02c.01.01.01.03,0,.05,0,.02-.01.03-.03.05-.01.01-.03.02-.05.02ZM15.7,23.27l-.09.49h-.1l.09-.49h.1ZM16.12,23.26s.07,0,.1.02c.03.02.05.04.06.07.01.03.01.07,0,.11l-.06.29h-.1l.05-.27s0-.08-.01-.1c-.02-.02-.05-.04-.08-.04s-.07.01-.1.04c-.03.02-.04.06-.05.1l-.05.27h-.1l.09-.49h.1v.06s.03-.04.06-.05c.03-.01.06-.02.09-.02ZM16.68,23.26s.07,0,.1.02c.03.02.05.03.06.06v-.07h.12l-.1.5s-.03.09-.05.12c-.03.04-.06.06-.1.08-.04.02-.08.03-.13.03-.07,0-.12-.02-.16-.05-.04-.03-.05-.07-.05-.13h.1s.02.05.04.06c.02.02.05.02.09.02.04,0,.08-.01.11-.04.03-.02.05-.06.06-.11l.02-.08s-.05.04-.08.06c-.03.02-.07.02-.1.02-.04,0-.08-.01-.11-.03-.03-.02-.05-.05-.07-.09-.01-.04-.01-.08,0-.13,0-.05.03-.09.06-.13.03-.04.06-.07.1-.09.04-.02.08-.03.12-.03h0ZM16.8,23.51s0-.06,0-.09c0-.02-.02-.04-.04-.06s-.04-.02-.07-.02-.05,0-.08.02-.05.03-.07.06c-.02.02-.03.05-.04.09,0,.03,0,.06,0,.09,0,.03.02.04.04.06.02.01.04.02.07.02s.05,0,.08-.02.05-.03.07-.06c.02-.03.03-.05.04-.09h0ZM17.77,23.32s-.02.06-.04.09c-.02.03-.05.05-.08.07-.04.02-.08.03-.13.03h-.11l-.05.25h-.1l.12-.62h.21s.09,0,.12.02c.03.02.05.04.06.07.01.03.01.06,0,.09h0ZM17.53,23.42s.07,0,.09-.03c.02-.02.04-.04.04-.07.01-.07-.02-.1-.1-.1h-.11l-.04.2h.11ZM18.36,23.27l-.09.49h-.1v-.06s-.03.04-.06.05c-.03.01-.06.02-.09.02-.04,0-.07,0-.1-.02-.03-.02-.05-.04-.06-.07-.01-.03-.01-.07,0-.11l.06-.29h.1l-.05.27s0,.08.01.1c.02.02.05.04.08.04s.07-.01.1-.04c.03-.02.04-.06.05-.1l.05-.27h.1ZM18.61,23.34s.05-.04.08-.06c.03-.02.07-.02.1-.02.04,0,.08.01.11.03.03.02.05.05.07.09.01.04.01.08,0,.13,0,.05-.03.09-.06.13-.03.04-.06.07-.1.09-.04.02-.08.03-.12.03-.04,0-.07,0-.1-.02-.03-.01-.05-.03-.06-.06v.07h-.12l.13-.66h.1l-.05.24h0ZM18.88,23.51s0-.06,0-.09c0-.02-.02-.04-.04-.06-.02-.01-.04-.02-.07-.02s-.05,0-.08.02c-.03.01-.05.03-.07.06-.02.02-.03.05-.04.09,0,.03,0,.06,0,.09,0,.03.02.04.04.06.02.01.04.02.07.02s.05,0,.08-.02c.03-.01.05-.03.07-.06.02-.03.03-.06.04-.09h0ZM19.29,23.1l-.13.66h-.1l.13-.66h.1ZM19.49,23.2s-.03,0-.04-.02c-.01-.01-.01-.03,0-.05,0-.02.01-.03.03-.05.01-.01.03-.02.05-.02s.03,0,.04.02c.01.01.01.03,0,.05,0,.02-.01.03-.03.05-.01.01-.03.02-.05.02ZM19.53,23.27l-.09.49h-.1l.09-.49h.1ZM19.62,23.51c0-.05.03-.09.06-.13.03-.04.06-.07.1-.09.04-.02.08-.03.13-.03.06,0,.11.01.14.04.03.03.05.07.06.12h-.11s-.01-.04-.03-.06c-.02-.01-.04-.02-.07-.02-.04,0-.08.01-.11.04-.03.03-.05.07-.06.12-.01.05,0,.09.01.12.02.03.05.04.09.04.06,0,.1-.03.13-.08h.11s-.06.09-.1.12c-.04.03-.1.04-.15.04-.05,0-.09-.01-.12-.03-.03-.02-.05-.05-.07-.09-.01-.04-.01-.08,0-.13h0ZM20.6,23.76s-.08,0-.11-.02c-.03-.01-.05-.04-.07-.06-.01-.03-.02-.06-.01-.09h.11s0,.05.02.07c.02.02.04.03.07.03s.06,0,.09-.03c.02-.02.04-.04.04-.07,0-.02,0-.04,0-.05,0-.01-.02-.02-.04-.03-.02,0-.04-.01-.07-.02-.04-.01-.07-.02-.09-.03-.02-.01-.04-.03-.05-.05s-.02-.05,0-.09c0-.04.02-.07.04-.09.02-.03.05-.05.09-.06.03-.01.07-.02.12-.02.06,0,.11.01.14.04.03.03.05.07.04.12h-.11s0-.04-.02-.06c-.02-.02-.04-.02-.07-.02-.03,0-.05,0-.08.02-.02.01-.03.04-.04.06,0,.02,0,.03,0,.05,0,.01.02.02.04.03.02,0,.04.01.07.02.04.01.07.02.09.03.02.01.04.03.06.05.01.02.02.05,0,.09,0,.03-.02.06-.04.09-.02.03-.05.05-.09.07-.04.02-.08.03-.12.03h0ZM21.47,23.5s0,.04-.01.05h-.37s0,.07.03.09c.02.02.05.04.09.04.05,0,.1-.02.13-.07h.11s-.06.08-.1.11c-.04.03-.1.04-.15.04-.05,0-.09-.01-.12-.03-.03-.02-.06-.05-.07-.09-.01-.04-.02-.08,0-.13,0-.05.03-.09.06-.13.03-.04.06-.07.1-.09.04-.02.09-.03.13-.03s.09.01.12.03c.03.02.06.05.07.09.01.04.02.08,0,.13h0ZM21.37,23.47s0-.07-.02-.09c-.02-.02-.05-.03-.09-.03-.04,0-.07.01-.1.03-.03.02-.05.05-.06.09h.27ZM21.74,23.34s.04-.04.07-.06c.03-.01.06-.02.09-.02l-.02.11h-.03s-.07.01-.1.03c-.02.02-.04.06-.05.11l-.05.26h-.1l.09-.49h.1v.07s-.01,0-.01,0ZM22.14,23.67l.22-.4h.11l-.28.49h-.12l-.09-.49h.11l.06.4ZM22.64,23.2s-.03,0-.04-.02c-.01-.01-.01-.03,0-.05,0-.02.01-.03.03-.05.01-.01.03-.02.05-.02s.03,0,.04.02c.01.01.01.03,0,.05,0,.02-.01.03-.03.05-.01.01-.03.02-.05.02ZM22.67,23.27l-.09.49h-.1l.09-.49h.1ZM22.76,23.51c0-.05.03-.09.06-.13.03-.04.06-.07.1-.09.04-.02.08-.03.13-.03.06,0,.11.01.14.04.03.03.05.07.06.12h-.11s-.01-.04-.03-.06c-.02-.01-.04-.02-.07-.02-.04,0-.08.01-.11.04-.03.03-.05.07-.06.12-.01.05,0,.09.01.12.02.03.05.04.09.04.06,0,.1-.03.13-.08h.11s-.06.09-.1.12c-.04.03-.1.04-.15.04-.05,0-.09-.01-.12-.03-.03-.02-.05-.05-.07-.09-.01-.04-.01-.08,0-.13h0ZM23.81,23.5s0,.04-.01.05h-.37s0,.07.03.09c.02.02.05.04.09.04.05,0,.1-.02.13-.07h.11s-.06.08-.1.11c-.04.03-.1.04-.15.04-.05,0-.09-.01-.12-.03-.03-.02-.06-.05-.07-.09-.01-.04-.02-.08,0-.13,0-.05.03-.09.06-.13.03-.04.06-.07.1-.09.04-.02.09-.03.13-.03s.09.01.12.03c.03.02.06.05.07.09.01.04.02.08,0,.13h0ZM23.71,23.47s0-.07-.02-.09c-.02-.02-.05-.03-.09-.03-.04,0-.07.01-.1.03-.03.02-.05.05-.06.09h.27Z"/>
      <path class="cls-11" d="M1.57,16.21v1.04c0,.23-.06.41-.17.53-.11.12-.28.18-.5.18s-.39-.06-.5-.18c-.11-.12-.17-.3-.17-.53v-1.04c0-.23.06-.41.17-.53.11-.12.28-.18.5-.18s.39.06.5.18c.11.12.17.3.17.53ZM1.15,16.19c0-.12-.02-.21-.06-.27-.04-.06-.11-.08-.2-.08s-.16.03-.2.08c-.04.06-.06.14-.06.27v1.09c0,.12.02.21.06.27.04.06.11.08.2.08s.16-.03.2-.08c.04-.06.06-.14.06-.27v-1.09ZM1.85,17.74c0-.06.02-.11.06-.15.04-.04.09-.06.15-.06s.11.02.15.06c.04.04.06.09.06.15s-.02.11-.06.15c-.04.04-.09.06-.15.06s-.1-.02-.15-.06c-.04-.04-.06-.09-.06-.15h0ZM3.19,16.64h.17c.13,0,.22-.02.27-.06.05-.04.07-.12.07-.25v-.21c0-.1-.02-.17-.07-.21-.05-.04-.14-.06-.27-.06h-.16v.79h0ZM2.59,17.92v-.31h.19v-1.75h-.19v-.31h.83c.23,0,.4.05.51.14.11.09.16.24.16.43v.24c0,.2-.05.34-.14.44-.09.09-.24.14-.43.14h-.33v.67h.2v.31h-.8ZM3.92,17.74c0-.06.02-.11.06-.15.04-.04.09-.06.15-.06s.11.02.15.06c.04.04.06.09.06.15s-.02.11-.06.15c-.04.04-.09.06-.15.06s-.1-.02-.15-.06c-.04-.04-.06-.09-.06-.15h0ZM5.29,18.34v-.35h.05c.08,0,.14-.02.17-.05.03-.03.05-.09.05-.19v-1.89h-.19v-.31h.8v.31h-.19v1.88c0,.21-.05.36-.15.46-.1.1-.25.15-.45.15h-.08ZM6.41,17.92v-.31h.19v-1.75h-.19v-.31h.8v.31h-.2v1.75h.2v.31h-.8ZM7.5,17.92v-.31h.19v-1.75h-.19v-.31h.61l.63,1.62v-1.31h-.19v-.31h.72v.31h-.19v2.07h-.35l-.69-1.76v1.44h.18v.31h-.72ZM10.15,15.85v1.76h.08c.17,0,.29-.04.36-.13.07-.09.11-.23.11-.43v-.71c0-.19-.03-.31-.1-.39-.06-.07-.18-.11-.35-.11h-.1ZM9.55,15.55h.65c.33,0,.57.06.71.18.14.12.21.33.21.63v.62c0,.33-.07.57-.2.71-.13.14-.35.22-.64.22h-.72v-.31h.19v-1.75h-.19v-.31h0ZM11.96,16.95h.44l-.22-.96-.23.96h0ZM11.3,17.92v-.31h.15l.46-1.75h-.21v-.31h.99v.31h-.21l.46,1.75h.14v.31h-.75v-.31h.21l-.09-.4h-.56l-.1.4h.2v.31h-.71ZM13.32,17.92v-.31h.19v-1.75h-.19v-.31h.8v.31h-.2v1.76h.57v-.44h.34v.74h-1.51,0ZM16.82,17.79c-.06.06-.12.1-.19.13-.07.03-.14.05-.21.05-.2,0-.35-.07-.46-.2-.11-.13-.16-.32-.16-.57v-.92c0-.26.05-.45.15-.58.1-.13.24-.2.44-.2.08,0,.16.02.22.05.07.03.12.08.17.15v-.15h.28v.7h-.31v-.07c0-.12-.03-.2-.08-.26-.04-.06-.11-.08-.19-.08-.09,0-.17.03-.21.09-.05.06-.07.16-.07.28v1.05c0,.13.02.22.07.28.04.06.11.09.21.09s.16-.03.21-.09c.05-.06.07-.15.07-.28v-.17h-.21v-.32h.55v1.15h-.19l-.09-.13h0ZM17.39,17.92v-.31h.19v-1.75h-.19v-.31h.8v.31h-.2v1.76h.57v-.44h.34v.74h-1.51ZM20.59,16.21v1.04c0,.23-.06.41-.17.53-.11.12-.28.18-.5.18s-.39-.06-.5-.18c-.11-.12-.17-.3-.17-.53v-1.04c0-.23.06-.41.17-.53.11-.12.28-.18.5-.18s.39.06.5.18c.11.12.17.3.17.53ZM20.18,16.19c0-.12-.02-.21-.06-.27-.04-.06-.11-.08-.2-.08s-.16.03-.2.08c-.04.06-.06.14-.06.27v1.09c0,.12.02.21.06.27.04.06.11.08.2.08s.16-.03.2-.08c.04-.06.06-.14.06-.27v-1.09ZM21.49,17.62h.21c.11,0,.19-.03.24-.08.05-.05.07-.14.07-.26v-.19c0-.11-.02-.18-.07-.23-.05-.05-.13-.07-.23-.07h-.21v.82h0ZM21.49,16.51h.18c.12,0,.2-.02.24-.06.04-.04.07-.12.07-.22v-.13c0-.08-.02-.15-.07-.19-.04-.04-.11-.06-.21-.06h-.22v.66ZM20.9,17.92v-.31h.19v-1.75h-.19v-.31h.84c.21,0,.36.04.47.13.1.09.15.22.15.4v.08c0,.14-.03.25-.1.33-.07.08-.17.13-.3.16.15.02.26.07.33.15.07.08.1.2.1.35v.15c0,.21-.05.36-.15.46-.1.1-.25.15-.46.15h-.89ZM23.33,16.95h.44l-.22-.96-.23.96h0ZM22.67,17.92v-.31h.15l.46-1.75h-.21v-.31h.99v.31h-.21l.46,1.75h.14v.31h-.75v-.31h.21l-.09-.4h-.56l-.1.4h.2v.31h-.71,0ZM24.69,17.92v-.31h.19v-1.75h-.19v-.31h.8v.31h-.2v1.76h.57v-.44h.34v.74h-1.51Z"/>
      <path class="cls-9" d="M1.13,18.71v.81h-.13v-.81h.13ZM2.02,19.52h-.13l-.4-.61v.61h-.13v-.81h.13l.4.61v-.61h.13v.81ZM2.5,19.53c-.05,0-.1,0-.15-.03-.04-.02-.08-.05-.1-.08-.02-.04-.04-.08-.04-.12h.14s.02.06.04.09c.02.02.06.03.1.03s.08-.01.11-.03c.03-.02.04-.05.04-.09,0-.03,0-.05-.02-.07-.02-.02-.04-.03-.06-.04-.02,0-.06-.02-.1-.03-.05-.01-.1-.03-.13-.04-.03-.01-.06-.04-.08-.07-.02-.03-.04-.07-.04-.12,0-.05.01-.09.04-.12.02-.04.06-.06.1-.08.04-.02.09-.03.15-.03.08,0,.14.02.19.06.05.04.08.09.08.16h-.15s-.02-.05-.04-.08c-.03-.02-.06-.03-.1-.03-.04,0-.07,0-.09.03s-.04.05-.04.08c0,.02,0,.05.02.06.02.02.03.03.06.04.02,0,.06.02.1.03.05.01.1.03.13.04.03.01.06.04.09.07.02.03.04.07.04.12,0,.04-.01.08-.03.12-.02.04-.05.07-.1.09-.04.02-.09.03-.15.03h0ZM3.51,18.71v.11h-.22v.7h-.13v-.7h-.22v-.11h.57ZM3.82,18.71v.81h-.13v-.81h.13ZM4.57,18.71v.11h-.22v.7h-.13v-.7h-.22v-.11h.57ZM4.88,18.71v.52c0,.06.02.11.05.14.03.03.08.05.14.05s.1-.02.14-.05c.03-.03.05-.08.05-.14v-.52h.13v.52c0,.07-.01.12-.04.17-.03.05-.07.08-.12.1-.05.02-.1.03-.16.03s-.11-.01-.16-.03-.09-.06-.11-.1c-.03-.05-.04-.1-.04-.17v-.52s.13,0,.13,0ZM6.13,18.71v.11h-.22v.7h-.13v-.7h-.22v-.11h.57ZM6.44,18.71v.81h-.13v-.81h.13ZM7.03,19.53c-.08,0-.15-.02-.21-.05-.06-.04-.11-.09-.15-.15-.04-.06-.06-.14-.06-.21s.02-.15.06-.21c.04-.06.09-.11.15-.15.06-.04.13-.05.21-.05s.15.02.21.05c.06.04.11.08.15.15.04.06.05.13.05.21s-.02.15-.05.21c-.04.06-.09.11-.15.15-.06.04-.13.05-.21.05ZM7.03,19.41c.05,0,.1-.01.14-.04.04-.02.08-.06.1-.11.02-.05.04-.1.04-.16s-.01-.11-.04-.16c-.02-.05-.06-.08-.1-.1-.04-.02-.09-.04-.14-.04s-.1.01-.14.04c-.04.02-.08.06-.1.1-.02.05-.04.1-.04.16s.01.11.04.16c.02.05.06.08.1.11.04.02.09.04.14.04ZM8.29,19.52h-.13l-.4-.61v.61h-.13v-.81h.13l.4.61v-.61h.13v.81ZM9.18,19.53c-.08,0-.15-.02-.21-.05-.06-.04-.11-.09-.15-.15-.04-.06-.06-.14-.06-.21s.02-.15.06-.21c.04-.06.09-.11.15-.15.06-.04.13-.05.21-.05s.15.02.21.05c.06.04.11.08.15.15.04.06.05.13.05.21s-.02.15-.05.21c-.04.06-.09.11-.15.15-.06.04-.13.05-.21.05ZM9.18,19.41c.05,0,.1-.01.14-.04.04-.02.08-.06.1-.11.02-.05.04-.1.04-.16s-.01-.11-.04-.16c-.02-.05-.06-.08-.1-.1-.04-.02-.09-.04-.14-.04s-.1.01-.14.04c-.04.02-.08.06-.1.1-.02.05-.04.1-.04.16s.01.11.04.16c.02.05.06.08.1.11.04.02.09.04.14.04ZM10.25,18.71v.11h-.35v.24h.27v.11h-.27v.36h-.13v-.81h.48ZM10.85,18.81v.24h.28v.11h-.28v.25h.32v.11h-.45v-.81h.45v.11h-.32ZM12.23,18.71v.81h-.13v-.56l-.25.56h-.09l-.25-.56v.56h-.13v-.81h.14l.29.64.28-.64h.14ZM12.58,18.71v.81h-.13v-.81h.13ZM13.47,19.52h-.13l-.4-.61v.61h-.13v-.81h.13l.4.61v-.61h.13v.81ZM13.82,18.81v.24h.28v.11h-.28v.25h.32v.11h-.45v-.81h.45v.11h-.32ZM15.01,19.52h-.13l-.4-.61v.61h-.13v-.81h.13l.4.61v-.61h.13v.81ZM15.19,19.11c0-.08.02-.15.06-.21.04-.06.09-.11.15-.15.06-.04.13-.05.21-.05.09,0,.16.02.23.06.07.04.12.1.15.18h-.16s-.05-.07-.09-.1-.08-.03-.13-.03c-.05,0-.1.01-.14.04-.04.02-.08.06-.1.1-.02.05-.04.1-.04.16s.01.11.04.16c.02.05.06.08.1.1.04.02.09.04.14.04.05,0,.09-.01.13-.03s.07-.05.09-.1h.16c-.03.08-.08.14-.15.18-.07.04-.14.06-.23.06-.08,0-.15-.02-.21-.05-.06-.04-.11-.08-.15-.15-.04-.06-.06-.13-.06-.21ZM16.32,18.81v.24h.28v.11h-.28v.25h.32v.11h-.45v-.81h.45v.11h-.32ZM17.4,18.71c.09,0,.16.02.23.05.07.03.12.08.15.14.04.06.05.13.05.22s-.02.15-.05.22c-.04.06-.09.11-.15.14-.07.03-.14.05-.23.05h-.27v-.81h.27ZM17.4,19.41c.1,0,.17-.03.22-.08.05-.05.08-.12.08-.22s-.03-.17-.08-.22c-.05-.05-.12-.08-.22-.08h-.13v.6h.13ZM18.15,18.81v.24h.28v.11h-.28v.25h.32v.11h-.45v-.81h.45v.11h-.32ZM18.8,18.81v.24h.28v.11h-.28v.25h.32v.11h-.45v-.81h.45v.11h-.32ZM20.18,18.71v.81h-.13v-.56l-.25.56h-.09l-.25-.56v.56h-.13v-.81h.14l.29.64.28-.64h.14ZM20.54,18.81v.24h.28v.11h-.28v.25h.32v.11h-.45v-.81h.45v.11h-.32ZM21.33,18.71c.09,0,.16.02.23.05.07.03.12.08.15.14.04.06.05.13.05.22s-.02.15-.05.22c-.04.06-.09.11-.15.14-.07.03-.14.05-.23.05h-.27v-.81h.27ZM21.33,19.41c.1,0,.17-.03.22-.08.05-.05.08-.12.08-.22s-.03-.17-.08-.22c-.05-.05-.12-.08-.22-.08h-.13v.6h.13ZM22.76,18.71v.11h-.22v.7h-.13v-.7h-.22v-.11h.57ZM23.31,19.53c-.08,0-.15-.02-.21-.05-.06-.04-.11-.09-.15-.15-.04-.06-.06-.14-.06-.21s.02-.15.06-.21c.04-.06.09-.11.15-.15.06-.04.13-.05.21-.05s.15.02.21.05c.06.04.11.08.15.15.04.06.06.13.06.21s-.02.15-.06.21c-.04.06-.09.11-.15.15-.06.04-.13.05-.21.05ZM23.31,19.41c.05,0,.1-.01.14-.04.04-.02.08-.06.1-.11.02-.05.04-.1.04-.16s-.01-.11-.04-.16c-.02-.05-.06-.08-.1-.1-.04-.02-.09-.04-.14-.04s-.1.01-.14.04c-.04.02-.08.06-.1.1-.02.05-.04.1-.04.16s.01.11.04.16c.02.05.06.08.1.11.04.02.09.04.14.04ZM24.63,19.1s.08.03.11.07c.03.04.05.08.05.13,0,.04-.01.08-.03.11-.02.03-.05.06-.09.08-.04.02-.09.03-.14.03h-.33v-.81h.31c.06,0,.1,0,.14.03.04.02.07.04.09.08.02.03.03.07.03.11,0,.05-.01.09-.04.12-.02.03-.06.05-.1.07ZM24.33,19.05h.16s.08,0,.1-.03c.02-.02.04-.05.04-.09s-.01-.07-.04-.09c-.02-.02-.06-.03-.1-.03h-.16v.23ZM24.51,19.41s.08-.01.11-.03c.03-.02.04-.05.04-.09s-.01-.07-.04-.09c-.03-.02-.06-.04-.11-.04h-.18v.25h.18,0ZM25.11,18.81v.24h.28v.11h-.28v.25h.32v.11h-.45v-.81h.45v.11h-.32Z"/>
      <path class="cls-11" d="M5.01,21.82v-1.46h-.19v-.31h.79v.31h-.18v1.44c0,.12.02.2.06.25.04.05.11.08.2.08s.16-.03.2-.08c.04-.05.06-.14.06-.25v-1.44h-.18v-.31h.79v.31h-.19v1.46c0,.21-.06.37-.17.48-.11.11-.28.17-.5.17s-.39-.06-.5-.17c-.12-.11-.17-.27-.17-.48ZM6.84,22.41v-.31h.19v-1.75h-.19v-.31h.61l.63,1.62v-1.31h-.19v-.31h.72v.31h-.19v2.07h-.35l-.69-1.76v1.44h.18v.31h-.72ZM8.89,22.41v-.31h.19v-1.75h-.19v-.31h.8v.31h-.2v1.75h.2v.31h-.8ZM10.59,22.44l-.54-2.08h-.13v-.31h.7v.31h-.16l.28,1.39.29-1.39h-.17v-.31h.67v.31h-.15l-.51,2.08h-.29ZM11.76,22.41v-.31h.19v-1.75h-.19v-.31h1.54v.67h-.34v-.37h-.6v.64h.51v.34h-.51v.78h.6v-.42h.34v.73h-1.54ZM14.21,21.03h.23c.1,0,.17-.02.22-.06.05-.04.07-.1.07-.19v-.2c0-.09-.02-.15-.07-.18-.04-.03-.13-.05-.25-.05h-.2v.68h0ZM13.6,22.41v-.31h.19v-1.75h-.19v-.31h.84c.25,0,.43.04.53.12.1.08.15.22.15.41v.16c0,.14-.03.25-.09.32-.06.07-.16.11-.31.13.15.02.25.06.31.11.06.05.09.14.09.26v.55h.19v.31h-.59v-.84c0-.1-.02-.16-.06-.2-.04-.03-.13-.05-.25-.05h-.21v.79h.18v.31h-.79,0ZM15.58,22.41v-.74h.31c.01.14.05.26.11.34.06.08.14.12.24.12.07,0,.13-.02.18-.07.04-.05.07-.11.07-.18,0-.06-.02-.11-.05-.17-.03-.05-.08-.11-.14-.17l-.41-.36c-.1-.09-.17-.18-.22-.28-.05-.1-.07-.22-.07-.34,0-.16.05-.3.15-.4.1-.11.22-.16.37-.16.07,0,.15.02.21.05.07.03.13.08.19.14v-.15h.29v.64h-.29c-.02-.11-.05-.2-.11-.27-.06-.06-.13-.1-.21-.1-.06,0-.12.02-.16.07-.04.05-.07.1-.07.16,0,.05.01.1.04.15.03.05.07.1.12.14l.44.39c.11.1.19.2.24.29.05.1.07.21.07.33,0,.17-.05.32-.16.43-.11.11-.25.17-.41.17-.09,0-.17-.02-.24-.06-.07-.04-.14-.1-.2-.17v.18h-.28ZM17.12,22.41v-.31h.19v-1.75h-.19v-.31h.8v.31h-.2v1.75h.2v.31h-.8ZM18.52,22.41v-.31h.23v-1.77h-.27v.4h-.28v-.69h1.51v.69h-.28v-.4h-.27v1.77h.24v.31h-.88ZM19.95,20.05h.72v.31h-.17l.28.77.32-.77h-.17v-.31h.68v.31h-.14l-.51,1.13v.63h.19v.31h-.8v-.31h.19v-.64l-.45-1.11h-.14v-.31h0Z"/>
      <path class="cls-10" d="M25.62,18.24h.58v4.33h-.58v-.13h.46v-4.08h-.46v-.13ZM.8,22.57H.22v-4.33h.58v.13h-.46v4.08h.46v.13h0Z"/>
    </g>
  </g>
</svg>